G04 #@! TF.GenerationSoftware,KiCad,Pcbnew,5.1.1-8be2ce7~80~ubuntu16.04.1*
G04 #@! TF.CreationDate,2019-04-29T10:17:37+02:00*
G04 #@! TF.ProjectId,servomotors_ext_pwr_adaptor,73657276-6f6d-46f7-946f-72735f657874,rev?*
G04 #@! TF.SameCoordinates,Original*
G04 #@! TF.FileFunction,Copper,L2,Bot*
G04 #@! TF.FilePolarity,Positive*
%FSLAX46Y46*%
G04 Gerber Fmt 4.6, Leading zero omitted, Abs format (unit mm)*
G04 Created by KiCad (PCBNEW 5.1.1-8be2ce7~80~ubuntu16.04.1) date 2019-04-29 10:17:37*
%MOMM*%
%LPD*%
G04 APERTURE LIST*
%ADD10O,1.700000X1.700000*%
%ADD11R,1.700000X1.700000*%
%ADD12C,0.254000*%
%ADD13C,1.524000*%
G04 APERTURE END LIST*
D10*
X100126800Y-92506800D03*
X100126800Y-89966800D03*
D11*
X100126800Y-87426800D03*
X102666800Y-87426800D03*
D10*
X102666800Y-89966800D03*
X102666800Y-92506800D03*
X105206800Y-92506800D03*
X105206800Y-89966800D03*
D11*
X105206800Y-87426800D03*
X107746800Y-87426800D03*
D10*
X107746800Y-89966800D03*
X107746800Y-92506800D03*
X110286800Y-92506800D03*
X110286800Y-89966800D03*
D11*
X110286800Y-87426800D03*
X112826800Y-87426800D03*
D10*
X112826800Y-89966800D03*
X112826800Y-92506800D03*
X115366800Y-92506800D03*
X115366800Y-89966800D03*
D11*
X115366800Y-87426800D03*
X117906800Y-87426800D03*
D10*
X117906800Y-89966800D03*
X117906800Y-92506800D03*
X117906800Y-98062800D03*
X115366800Y-98062800D03*
X112826800Y-98062800D03*
X110286800Y-98062800D03*
X107746800Y-98062800D03*
X105206800Y-98062800D03*
X102666800Y-98062800D03*
D11*
X100126800Y-98062800D03*
X122326400Y-111201200D03*
D10*
X122326400Y-108661200D03*
X122326400Y-106121200D03*
D11*
X100126800Y-100634800D03*
D10*
X102666800Y-100634800D03*
X105206800Y-100634800D03*
X107746800Y-100634800D03*
X110286800Y-100634800D03*
X112826800Y-100634800D03*
X115366800Y-100634800D03*
X117906800Y-100634800D03*
X100126800Y-106190800D03*
X100126800Y-108730800D03*
D11*
X100126800Y-111270800D03*
X102666800Y-111252000D03*
D10*
X102666800Y-108712000D03*
X102666800Y-106172000D03*
D11*
X105206800Y-111252000D03*
D10*
X105206800Y-108712000D03*
X105206800Y-106172000D03*
X107746800Y-106172000D03*
X107746800Y-108712000D03*
D11*
X107746800Y-111252000D03*
X110286800Y-111252000D03*
D10*
X110286800Y-108712000D03*
X110286800Y-106172000D03*
X112826800Y-106172000D03*
X112826800Y-108712000D03*
D11*
X112826800Y-111252000D03*
X115366800Y-111252000D03*
D10*
X115366800Y-108712000D03*
X115366800Y-106172000D03*
X117906800Y-106172000D03*
X117906800Y-108712000D03*
D11*
X117906800Y-111252000D03*
X122326400Y-87426800D03*
X122326400Y-100584000D03*
D10*
X122326400Y-98044000D03*
D12*
X100126800Y-93708881D02*
X100126800Y-98062800D01*
X100126800Y-92506800D02*
X100126800Y-93708881D01*
X102666800Y-93708881D02*
X102666800Y-98062800D01*
X102666800Y-92506800D02*
X102666800Y-93708881D01*
X105206800Y-93708881D02*
X105206800Y-98062800D01*
X105206800Y-92506800D02*
X105206800Y-93708881D01*
X107746800Y-93708881D02*
X107746800Y-98062800D01*
X107746800Y-92506800D02*
X107746800Y-93708881D01*
X110286800Y-92506800D02*
X110286800Y-98062800D01*
X112826800Y-93708881D02*
X112826800Y-98062800D01*
X112826800Y-92506800D02*
X112826800Y-93708881D01*
X115366800Y-92506800D02*
X115366800Y-98062800D01*
X117906800Y-93708881D02*
X117906800Y-98062800D01*
X117906800Y-92506800D02*
X117906800Y-93708881D01*
D13*
X120497600Y-102412800D02*
X122326400Y-100584000D01*
X120497600Y-108034481D02*
X120497600Y-102412800D01*
X122326400Y-108661200D02*
X121124319Y-108661200D01*
X121124319Y-108661200D02*
X120497600Y-108034481D01*
D12*
X100126800Y-106190800D02*
X100126800Y-100634800D01*
X102666800Y-104969919D02*
X102666800Y-100634800D01*
X102666800Y-106172000D02*
X102666800Y-104969919D01*
X105206800Y-104969919D02*
X105206800Y-100634800D01*
X105206800Y-106172000D02*
X105206800Y-104969919D01*
X107746800Y-104969919D02*
X107746800Y-100634800D01*
X107746800Y-106172000D02*
X107746800Y-104969919D01*
X110286800Y-104969919D02*
X110286800Y-100634800D01*
X110286800Y-106172000D02*
X110286800Y-104969919D01*
X112826800Y-104969919D02*
X112826800Y-100634800D01*
X112826800Y-106172000D02*
X112826800Y-104969919D01*
X115366800Y-104969919D02*
X115366800Y-100634800D01*
X115366800Y-106172000D02*
X115366800Y-104969919D01*
X117906800Y-106172000D02*
X117906800Y-100634800D01*
G36*
X123913976Y-85217551D02*
G01*
X123823600Y-85532728D01*
X123796164Y-85859456D01*
X123832712Y-86185292D01*
X123931853Y-86497822D01*
X124089809Y-86785145D01*
X124300566Y-87036314D01*
X124556094Y-87241764D01*
X124846661Y-87393669D01*
X125161199Y-87486243D01*
X125487729Y-87515959D01*
X125813811Y-87481686D01*
X126127026Y-87384730D01*
X126340001Y-87269575D01*
X126340000Y-111339249D01*
X126083529Y-111209696D01*
X125767729Y-111121523D01*
X125440817Y-111096368D01*
X125115245Y-111135191D01*
X124803414Y-111236511D01*
X124517201Y-111396469D01*
X124267509Y-111608974D01*
X124063848Y-111865930D01*
X123913976Y-112157551D01*
X123823600Y-112472728D01*
X123796164Y-112799456D01*
X123832712Y-113125292D01*
X123931853Y-113437822D01*
X124043000Y-113640000D01*
X98462240Y-113640000D01*
X98581237Y-113416198D01*
X98676005Y-113102314D01*
X98708000Y-112776000D01*
X98707345Y-112729092D01*
X98666251Y-112403799D01*
X98572110Y-112120800D01*
X98638728Y-112120800D01*
X98650988Y-112245282D01*
X98687298Y-112364980D01*
X98746263Y-112475294D01*
X98825615Y-112571985D01*
X98922306Y-112651337D01*
X99032620Y-112710302D01*
X99152318Y-112746612D01*
X99276800Y-112758872D01*
X99841050Y-112755800D01*
X99999800Y-112597050D01*
X99999800Y-111397800D01*
X100253800Y-111397800D01*
X100253800Y-112597050D01*
X100412550Y-112755800D01*
X100976800Y-112758872D01*
X101101282Y-112746612D01*
X101220980Y-112710302D01*
X101331294Y-112651337D01*
X101408254Y-112588178D01*
X101462306Y-112632537D01*
X101572620Y-112691502D01*
X101692318Y-112727812D01*
X101816800Y-112740072D01*
X102381050Y-112737000D01*
X102539800Y-112578250D01*
X102539800Y-111379000D01*
X102793800Y-111379000D01*
X102793800Y-112578250D01*
X102952550Y-112737000D01*
X103516800Y-112740072D01*
X103641282Y-112727812D01*
X103760980Y-112691502D01*
X103871294Y-112632537D01*
X103936800Y-112578778D01*
X104002306Y-112632537D01*
X104112620Y-112691502D01*
X104232318Y-112727812D01*
X104356800Y-112740072D01*
X104921050Y-112737000D01*
X105079800Y-112578250D01*
X105079800Y-111379000D01*
X105333800Y-111379000D01*
X105333800Y-112578250D01*
X105492550Y-112737000D01*
X106056800Y-112740072D01*
X106181282Y-112727812D01*
X106300980Y-112691502D01*
X106411294Y-112632537D01*
X106476800Y-112578778D01*
X106542306Y-112632537D01*
X106652620Y-112691502D01*
X106772318Y-112727812D01*
X106896800Y-112740072D01*
X107461050Y-112737000D01*
X107619800Y-112578250D01*
X107619800Y-111379000D01*
X107873800Y-111379000D01*
X107873800Y-112578250D01*
X108032550Y-112737000D01*
X108596800Y-112740072D01*
X108721282Y-112727812D01*
X108840980Y-112691502D01*
X108951294Y-112632537D01*
X109016800Y-112578778D01*
X109082306Y-112632537D01*
X109192620Y-112691502D01*
X109312318Y-112727812D01*
X109436800Y-112740072D01*
X110001050Y-112737000D01*
X110159800Y-112578250D01*
X110159800Y-111379000D01*
X110413800Y-111379000D01*
X110413800Y-112578250D01*
X110572550Y-112737000D01*
X111136800Y-112740072D01*
X111261282Y-112727812D01*
X111380980Y-112691502D01*
X111491294Y-112632537D01*
X111556800Y-112578778D01*
X111622306Y-112632537D01*
X111732620Y-112691502D01*
X111852318Y-112727812D01*
X111976800Y-112740072D01*
X112541050Y-112737000D01*
X112699800Y-112578250D01*
X112699800Y-111379000D01*
X112953800Y-111379000D01*
X112953800Y-112578250D01*
X113112550Y-112737000D01*
X113676800Y-112740072D01*
X113801282Y-112727812D01*
X113920980Y-112691502D01*
X114031294Y-112632537D01*
X114096800Y-112578778D01*
X114162306Y-112632537D01*
X114272620Y-112691502D01*
X114392318Y-112727812D01*
X114516800Y-112740072D01*
X115081050Y-112737000D01*
X115239800Y-112578250D01*
X115239800Y-111379000D01*
X115493800Y-111379000D01*
X115493800Y-112578250D01*
X115652550Y-112737000D01*
X116216800Y-112740072D01*
X116341282Y-112727812D01*
X116460980Y-112691502D01*
X116571294Y-112632537D01*
X116636800Y-112578778D01*
X116702306Y-112632537D01*
X116812620Y-112691502D01*
X116932318Y-112727812D01*
X117056800Y-112740072D01*
X117621050Y-112737000D01*
X117779800Y-112578250D01*
X117779800Y-111379000D01*
X118033800Y-111379000D01*
X118033800Y-112578250D01*
X118192550Y-112737000D01*
X118756800Y-112740072D01*
X118881282Y-112727812D01*
X119000980Y-112691502D01*
X119111294Y-112632537D01*
X119207985Y-112553185D01*
X119287337Y-112456494D01*
X119346302Y-112346180D01*
X119382612Y-112226482D01*
X119394872Y-112102000D01*
X119394596Y-112051200D01*
X120838328Y-112051200D01*
X120850588Y-112175682D01*
X120886898Y-112295380D01*
X120945863Y-112405694D01*
X121025215Y-112502385D01*
X121121906Y-112581737D01*
X121232220Y-112640702D01*
X121351918Y-112677012D01*
X121476400Y-112689272D01*
X122040650Y-112686200D01*
X122199400Y-112527450D01*
X122199400Y-111328200D01*
X122453400Y-111328200D01*
X122453400Y-112527450D01*
X122612150Y-112686200D01*
X123176400Y-112689272D01*
X123300882Y-112677012D01*
X123420580Y-112640702D01*
X123530894Y-112581737D01*
X123627585Y-112502385D01*
X123706937Y-112405694D01*
X123765902Y-112295380D01*
X123802212Y-112175682D01*
X123814472Y-112051200D01*
X123811400Y-111486950D01*
X123652650Y-111328200D01*
X122453400Y-111328200D01*
X122199400Y-111328200D01*
X121000150Y-111328200D01*
X120841400Y-111486950D01*
X120838328Y-112051200D01*
X119394596Y-112051200D01*
X119391800Y-111537750D01*
X119233050Y-111379000D01*
X118033800Y-111379000D01*
X117779800Y-111379000D01*
X115493800Y-111379000D01*
X115239800Y-111379000D01*
X112953800Y-111379000D01*
X112699800Y-111379000D01*
X110413800Y-111379000D01*
X110159800Y-111379000D01*
X107873800Y-111379000D01*
X107619800Y-111379000D01*
X105333800Y-111379000D01*
X105079800Y-111379000D01*
X102793800Y-111379000D01*
X102539800Y-111379000D01*
X101340550Y-111379000D01*
X101321750Y-111397800D01*
X100253800Y-111397800D01*
X99999800Y-111397800D01*
X98800550Y-111397800D01*
X98641800Y-111556550D01*
X98638728Y-112120800D01*
X98572110Y-112120800D01*
X98562756Y-112092682D01*
X98400803Y-111807594D01*
X98186561Y-111559391D01*
X97928189Y-111357529D01*
X97635529Y-111209696D01*
X97319729Y-111121523D01*
X96992817Y-111096368D01*
X96667245Y-111135191D01*
X96355414Y-111236511D01*
X96164000Y-111343488D01*
X96164000Y-89966800D01*
X98634615Y-89966800D01*
X98663287Y-90257911D01*
X98748201Y-90537834D01*
X98886094Y-90795814D01*
X99071666Y-91021934D01*
X99297786Y-91207506D01*
X99352591Y-91236800D01*
X99297786Y-91266094D01*
X99071666Y-91451666D01*
X98886094Y-91677786D01*
X98748201Y-91935766D01*
X98663287Y-92215689D01*
X98634615Y-92506800D01*
X98663287Y-92797911D01*
X98748201Y-93077834D01*
X98886094Y-93335814D01*
X99071666Y-93561934D01*
X99297786Y-93747506D01*
X99364800Y-93783326D01*
X99364801Y-96574728D01*
X99276800Y-96574728D01*
X99152318Y-96586988D01*
X99032620Y-96623298D01*
X98922306Y-96682263D01*
X98825615Y-96761615D01*
X98746263Y-96858306D01*
X98687298Y-96968620D01*
X98650988Y-97088318D01*
X98638728Y-97212800D01*
X98638728Y-98912800D01*
X98650988Y-99037282D01*
X98687298Y-99156980D01*
X98746263Y-99267294D01*
X98813153Y-99348800D01*
X98746263Y-99430306D01*
X98687298Y-99540620D01*
X98650988Y-99660318D01*
X98638728Y-99784800D01*
X98638728Y-101484800D01*
X98650988Y-101609282D01*
X98687298Y-101728980D01*
X98746263Y-101839294D01*
X98825615Y-101935985D01*
X98922306Y-102015337D01*
X99032620Y-102074302D01*
X99152318Y-102110612D01*
X99276800Y-102122872D01*
X99364801Y-102122872D01*
X99364800Y-104914274D01*
X99297786Y-104950094D01*
X99071666Y-105135666D01*
X98886094Y-105361786D01*
X98748201Y-105619766D01*
X98663287Y-105899689D01*
X98634615Y-106190800D01*
X98663287Y-106481911D01*
X98748201Y-106761834D01*
X98886094Y-107019814D01*
X99071666Y-107245934D01*
X99297786Y-107431506D01*
X99352591Y-107460800D01*
X99297786Y-107490094D01*
X99071666Y-107675666D01*
X98886094Y-107901786D01*
X98748201Y-108159766D01*
X98663287Y-108439689D01*
X98634615Y-108730800D01*
X98663287Y-109021911D01*
X98748201Y-109301834D01*
X98886094Y-109559814D01*
X99071666Y-109785934D01*
X99101487Y-109810407D01*
X99032620Y-109831298D01*
X98922306Y-109890263D01*
X98825615Y-109969615D01*
X98746263Y-110066306D01*
X98687298Y-110176620D01*
X98650988Y-110296318D01*
X98638728Y-110420800D01*
X98641800Y-110985050D01*
X98800550Y-111143800D01*
X99999800Y-111143800D01*
X99999800Y-111123800D01*
X100253800Y-111123800D01*
X100253800Y-111143800D01*
X101453050Y-111143800D01*
X101471850Y-111125000D01*
X102539800Y-111125000D01*
X102539800Y-111105000D01*
X102793800Y-111105000D01*
X102793800Y-111125000D01*
X105079800Y-111125000D01*
X105079800Y-111105000D01*
X105333800Y-111105000D01*
X105333800Y-111125000D01*
X107619800Y-111125000D01*
X107619800Y-111105000D01*
X107873800Y-111105000D01*
X107873800Y-111125000D01*
X110159800Y-111125000D01*
X110159800Y-111105000D01*
X110413800Y-111105000D01*
X110413800Y-111125000D01*
X112699800Y-111125000D01*
X112699800Y-111105000D01*
X112953800Y-111105000D01*
X112953800Y-111125000D01*
X115239800Y-111125000D01*
X115239800Y-111105000D01*
X115493800Y-111105000D01*
X115493800Y-111125000D01*
X117779800Y-111125000D01*
X117779800Y-111105000D01*
X118033800Y-111105000D01*
X118033800Y-111125000D01*
X119233050Y-111125000D01*
X119391800Y-110966250D01*
X119394872Y-110402000D01*
X119382612Y-110277518D01*
X119346302Y-110157820D01*
X119287337Y-110047506D01*
X119207985Y-109950815D01*
X119111294Y-109871463D01*
X119000980Y-109812498D01*
X118932113Y-109791607D01*
X118961934Y-109767134D01*
X119147506Y-109541014D01*
X119285399Y-109283034D01*
X119370313Y-109003111D01*
X119382636Y-108877996D01*
X119504992Y-109027088D01*
X119558305Y-109070841D01*
X120087955Y-109600491D01*
X120131711Y-109653808D01*
X120344432Y-109828383D01*
X120431553Y-109874950D01*
X120587123Y-109958104D01*
X120850459Y-110037986D01*
X120920130Y-110044848D01*
X120886898Y-110107020D01*
X120850588Y-110226718D01*
X120838328Y-110351200D01*
X120841400Y-110915450D01*
X121000150Y-111074200D01*
X122199400Y-111074200D01*
X122199400Y-111054200D01*
X122453400Y-111054200D01*
X122453400Y-111074200D01*
X123652650Y-111074200D01*
X123811400Y-110915450D01*
X123814472Y-110351200D01*
X123802212Y-110226718D01*
X123765902Y-110107020D01*
X123706937Y-109996706D01*
X123627585Y-109900015D01*
X123530894Y-109820663D01*
X123420580Y-109761698D01*
X123351713Y-109740807D01*
X123381534Y-109716334D01*
X123567106Y-109490214D01*
X123704999Y-109232234D01*
X123789913Y-108952311D01*
X123818585Y-108661200D01*
X123789913Y-108370089D01*
X123704999Y-108090166D01*
X123567106Y-107832186D01*
X123381534Y-107606066D01*
X123155414Y-107420494D01*
X123100609Y-107391200D01*
X123155414Y-107361906D01*
X123381534Y-107176334D01*
X123567106Y-106950214D01*
X123704999Y-106692234D01*
X123789913Y-106412311D01*
X123818585Y-106121200D01*
X123789913Y-105830089D01*
X123704999Y-105550166D01*
X123567106Y-105292186D01*
X123381534Y-105066066D01*
X123155414Y-104880494D01*
X122897434Y-104742601D01*
X122617511Y-104657687D01*
X122399350Y-104636200D01*
X122253450Y-104636200D01*
X122035289Y-104657687D01*
X121894600Y-104700365D01*
X121894600Y-102991455D01*
X122813984Y-102072072D01*
X123176400Y-102072072D01*
X123300882Y-102059812D01*
X123420580Y-102023502D01*
X123530894Y-101964537D01*
X123627585Y-101885185D01*
X123706937Y-101788494D01*
X123765902Y-101678180D01*
X123802212Y-101558482D01*
X123814472Y-101434000D01*
X123814472Y-99734000D01*
X123802212Y-99609518D01*
X123765902Y-99489820D01*
X123706937Y-99379506D01*
X123627585Y-99282815D01*
X123530894Y-99203463D01*
X123420580Y-99144498D01*
X123351713Y-99123607D01*
X123381534Y-99099134D01*
X123567106Y-98873014D01*
X123704999Y-98615034D01*
X123789913Y-98335111D01*
X123818585Y-98044000D01*
X123789913Y-97752889D01*
X123704999Y-97472966D01*
X123567106Y-97214986D01*
X123381534Y-96988866D01*
X123155414Y-96803294D01*
X122897434Y-96665401D01*
X122617511Y-96580487D01*
X122399350Y-96559000D01*
X122253450Y-96559000D01*
X122035289Y-96580487D01*
X121755366Y-96665401D01*
X121497386Y-96803294D01*
X121271266Y-96988866D01*
X121085694Y-97214986D01*
X120947801Y-97472966D01*
X120862887Y-97752889D01*
X120834215Y-98044000D01*
X120862887Y-98335111D01*
X120947801Y-98615034D01*
X121085694Y-98873014D01*
X121271266Y-99099134D01*
X121301087Y-99123607D01*
X121232220Y-99144498D01*
X121121906Y-99203463D01*
X121025215Y-99282815D01*
X120945863Y-99379506D01*
X120886898Y-99489820D01*
X120850588Y-99609518D01*
X120838328Y-99734000D01*
X120838328Y-100096416D01*
X119558304Y-101376441D01*
X119504993Y-101420192D01*
X119330418Y-101632913D01*
X119247259Y-101788494D01*
X119200697Y-101875605D01*
X119120814Y-102138941D01*
X119093841Y-102412800D01*
X119100601Y-102481435D01*
X119100600Y-105285832D01*
X118961934Y-105116866D01*
X118735814Y-104931294D01*
X118668800Y-104895474D01*
X118668800Y-101911326D01*
X118735814Y-101875506D01*
X118961934Y-101689934D01*
X119147506Y-101463814D01*
X119285399Y-101205834D01*
X119370313Y-100925911D01*
X119398985Y-100634800D01*
X119370313Y-100343689D01*
X119285399Y-100063766D01*
X119147506Y-99805786D01*
X118961934Y-99579666D01*
X118735814Y-99394094D01*
X118651075Y-99348800D01*
X118735814Y-99303506D01*
X118961934Y-99117934D01*
X119147506Y-98891814D01*
X119285399Y-98633834D01*
X119370313Y-98353911D01*
X119398985Y-98062800D01*
X119370313Y-97771689D01*
X119285399Y-97491766D01*
X119147506Y-97233786D01*
X118961934Y-97007666D01*
X118735814Y-96822094D01*
X118668800Y-96786274D01*
X118668800Y-93783326D01*
X118735814Y-93747506D01*
X118961934Y-93561934D01*
X119147506Y-93335814D01*
X119285399Y-93077834D01*
X119370313Y-92797911D01*
X119398985Y-92506800D01*
X119370313Y-92215689D01*
X119285399Y-91935766D01*
X119147506Y-91677786D01*
X118961934Y-91451666D01*
X118735814Y-91266094D01*
X118681009Y-91236800D01*
X118735814Y-91207506D01*
X118961934Y-91021934D01*
X119147506Y-90795814D01*
X119285399Y-90537834D01*
X119370313Y-90257911D01*
X119398985Y-89966800D01*
X119370313Y-89675689D01*
X119285399Y-89395766D01*
X119147506Y-89137786D01*
X118961934Y-88911666D01*
X118932113Y-88887193D01*
X119000980Y-88866302D01*
X119111294Y-88807337D01*
X119207985Y-88727985D01*
X119287337Y-88631294D01*
X119346302Y-88520980D01*
X119382612Y-88401282D01*
X119394872Y-88276800D01*
X120838328Y-88276800D01*
X120850588Y-88401282D01*
X120886898Y-88520980D01*
X120945863Y-88631294D01*
X121025215Y-88727985D01*
X121121906Y-88807337D01*
X121232220Y-88866302D01*
X121351918Y-88902612D01*
X121476400Y-88914872D01*
X122040650Y-88911800D01*
X122199400Y-88753050D01*
X122199400Y-87553800D01*
X122453400Y-87553800D01*
X122453400Y-88753050D01*
X122612150Y-88911800D01*
X123176400Y-88914872D01*
X123300882Y-88902612D01*
X123420580Y-88866302D01*
X123530894Y-88807337D01*
X123627585Y-88727985D01*
X123706937Y-88631294D01*
X123765902Y-88520980D01*
X123802212Y-88401282D01*
X123814472Y-88276800D01*
X123811400Y-87712550D01*
X123652650Y-87553800D01*
X122453400Y-87553800D01*
X122199400Y-87553800D01*
X121000150Y-87553800D01*
X120841400Y-87712550D01*
X120838328Y-88276800D01*
X119394872Y-88276800D01*
X119391800Y-87712550D01*
X119233050Y-87553800D01*
X118033800Y-87553800D01*
X118033800Y-87573800D01*
X117779800Y-87573800D01*
X117779800Y-87553800D01*
X115493800Y-87553800D01*
X115493800Y-87573800D01*
X115239800Y-87573800D01*
X115239800Y-87553800D01*
X112953800Y-87553800D01*
X112953800Y-87573800D01*
X112699800Y-87573800D01*
X112699800Y-87553800D01*
X110413800Y-87553800D01*
X110413800Y-87573800D01*
X110159800Y-87573800D01*
X110159800Y-87553800D01*
X107873800Y-87553800D01*
X107873800Y-87573800D01*
X107619800Y-87573800D01*
X107619800Y-87553800D01*
X105333800Y-87553800D01*
X105333800Y-87573800D01*
X105079800Y-87573800D01*
X105079800Y-87553800D01*
X102793800Y-87553800D01*
X102793800Y-87573800D01*
X102539800Y-87573800D01*
X102539800Y-87553800D01*
X100253800Y-87553800D01*
X100253800Y-87573800D01*
X99999800Y-87573800D01*
X99999800Y-87553800D01*
X98800550Y-87553800D01*
X98641800Y-87712550D01*
X98638728Y-88276800D01*
X98650988Y-88401282D01*
X98687298Y-88520980D01*
X98746263Y-88631294D01*
X98825615Y-88727985D01*
X98922306Y-88807337D01*
X99032620Y-88866302D01*
X99101487Y-88887193D01*
X99071666Y-88911666D01*
X98886094Y-89137786D01*
X98748201Y-89395766D01*
X98663287Y-89675689D01*
X98634615Y-89966800D01*
X96164000Y-89966800D01*
X96164000Y-87286991D01*
X96398661Y-87409669D01*
X96713199Y-87502243D01*
X97039729Y-87531959D01*
X97365811Y-87497686D01*
X97679026Y-87400730D01*
X97967444Y-87244783D01*
X98220079Y-87035785D01*
X98427308Y-86781698D01*
X98536253Y-86576800D01*
X98638728Y-86576800D01*
X98641800Y-87141050D01*
X98800550Y-87299800D01*
X99999800Y-87299800D01*
X99999800Y-86100550D01*
X100253800Y-86100550D01*
X100253800Y-87299800D01*
X102539800Y-87299800D01*
X102539800Y-86100550D01*
X102793800Y-86100550D01*
X102793800Y-87299800D01*
X105079800Y-87299800D01*
X105079800Y-86100550D01*
X105333800Y-86100550D01*
X105333800Y-87299800D01*
X107619800Y-87299800D01*
X107619800Y-86100550D01*
X107873800Y-86100550D01*
X107873800Y-87299800D01*
X110159800Y-87299800D01*
X110159800Y-86100550D01*
X110413800Y-86100550D01*
X110413800Y-87299800D01*
X112699800Y-87299800D01*
X112699800Y-86100550D01*
X112953800Y-86100550D01*
X112953800Y-87299800D01*
X115239800Y-87299800D01*
X115239800Y-86100550D01*
X115493800Y-86100550D01*
X115493800Y-87299800D01*
X117779800Y-87299800D01*
X117779800Y-86100550D01*
X118033800Y-86100550D01*
X118033800Y-87299800D01*
X119233050Y-87299800D01*
X119391800Y-87141050D01*
X119394872Y-86576800D01*
X120838328Y-86576800D01*
X120841400Y-87141050D01*
X121000150Y-87299800D01*
X122199400Y-87299800D01*
X122199400Y-86100550D01*
X122453400Y-86100550D01*
X122453400Y-87299800D01*
X123652650Y-87299800D01*
X123811400Y-87141050D01*
X123814472Y-86576800D01*
X123802212Y-86452318D01*
X123765902Y-86332620D01*
X123706937Y-86222306D01*
X123627585Y-86125615D01*
X123530894Y-86046263D01*
X123420580Y-85987298D01*
X123300882Y-85950988D01*
X123176400Y-85938728D01*
X122612150Y-85941800D01*
X122453400Y-86100550D01*
X122199400Y-86100550D01*
X122040650Y-85941800D01*
X121476400Y-85938728D01*
X121351918Y-85950988D01*
X121232220Y-85987298D01*
X121121906Y-86046263D01*
X121025215Y-86125615D01*
X120945863Y-86222306D01*
X120886898Y-86332620D01*
X120850588Y-86452318D01*
X120838328Y-86576800D01*
X119394872Y-86576800D01*
X119382612Y-86452318D01*
X119346302Y-86332620D01*
X119287337Y-86222306D01*
X119207985Y-86125615D01*
X119111294Y-86046263D01*
X119000980Y-85987298D01*
X118881282Y-85950988D01*
X118756800Y-85938728D01*
X118192550Y-85941800D01*
X118033800Y-86100550D01*
X117779800Y-86100550D01*
X117621050Y-85941800D01*
X117056800Y-85938728D01*
X116932318Y-85950988D01*
X116812620Y-85987298D01*
X116702306Y-86046263D01*
X116636800Y-86100022D01*
X116571294Y-86046263D01*
X116460980Y-85987298D01*
X116341282Y-85950988D01*
X116216800Y-85938728D01*
X115652550Y-85941800D01*
X115493800Y-86100550D01*
X115239800Y-86100550D01*
X115081050Y-85941800D01*
X114516800Y-85938728D01*
X114392318Y-85950988D01*
X114272620Y-85987298D01*
X114162306Y-86046263D01*
X114096800Y-86100022D01*
X114031294Y-86046263D01*
X113920980Y-85987298D01*
X113801282Y-85950988D01*
X113676800Y-85938728D01*
X113112550Y-85941800D01*
X112953800Y-86100550D01*
X112699800Y-86100550D01*
X112541050Y-85941800D01*
X111976800Y-85938728D01*
X111852318Y-85950988D01*
X111732620Y-85987298D01*
X111622306Y-86046263D01*
X111556800Y-86100022D01*
X111491294Y-86046263D01*
X111380980Y-85987298D01*
X111261282Y-85950988D01*
X111136800Y-85938728D01*
X110572550Y-85941800D01*
X110413800Y-86100550D01*
X110159800Y-86100550D01*
X110001050Y-85941800D01*
X109436800Y-85938728D01*
X109312318Y-85950988D01*
X109192620Y-85987298D01*
X109082306Y-86046263D01*
X109016800Y-86100022D01*
X108951294Y-86046263D01*
X108840980Y-85987298D01*
X108721282Y-85950988D01*
X108596800Y-85938728D01*
X108032550Y-85941800D01*
X107873800Y-86100550D01*
X107619800Y-86100550D01*
X107461050Y-85941800D01*
X106896800Y-85938728D01*
X106772318Y-85950988D01*
X106652620Y-85987298D01*
X106542306Y-86046263D01*
X106476800Y-86100022D01*
X106411294Y-86046263D01*
X106300980Y-85987298D01*
X106181282Y-85950988D01*
X106056800Y-85938728D01*
X105492550Y-85941800D01*
X105333800Y-86100550D01*
X105079800Y-86100550D01*
X104921050Y-85941800D01*
X104356800Y-85938728D01*
X104232318Y-85950988D01*
X104112620Y-85987298D01*
X104002306Y-86046263D01*
X103936800Y-86100022D01*
X103871294Y-86046263D01*
X103760980Y-85987298D01*
X103641282Y-85950988D01*
X103516800Y-85938728D01*
X102952550Y-85941800D01*
X102793800Y-86100550D01*
X102539800Y-86100550D01*
X102381050Y-85941800D01*
X101816800Y-85938728D01*
X101692318Y-85950988D01*
X101572620Y-85987298D01*
X101462306Y-86046263D01*
X101396800Y-86100022D01*
X101331294Y-86046263D01*
X101220980Y-85987298D01*
X101101282Y-85950988D01*
X100976800Y-85938728D01*
X100412550Y-85941800D01*
X100253800Y-86100550D01*
X99999800Y-86100550D01*
X99841050Y-85941800D01*
X99276800Y-85938728D01*
X99152318Y-85950988D01*
X99032620Y-85987298D01*
X98922306Y-86046263D01*
X98825615Y-86125615D01*
X98746263Y-86222306D01*
X98687298Y-86332620D01*
X98650988Y-86452318D01*
X98638728Y-86576800D01*
X98536253Y-86576800D01*
X98581237Y-86492198D01*
X98676005Y-86178314D01*
X98708000Y-85852000D01*
X98707345Y-85805092D01*
X98666251Y-85479799D01*
X98562756Y-85168682D01*
X98460114Y-84988000D01*
X124031949Y-84988000D01*
X123913976Y-85217551D01*
X123913976Y-85217551D01*
G37*
X123913976Y-85217551D02*
X123823600Y-85532728D01*
X123796164Y-85859456D01*
X123832712Y-86185292D01*
X123931853Y-86497822D01*
X124089809Y-86785145D01*
X124300566Y-87036314D01*
X124556094Y-87241764D01*
X124846661Y-87393669D01*
X125161199Y-87486243D01*
X125487729Y-87515959D01*
X125813811Y-87481686D01*
X126127026Y-87384730D01*
X126340001Y-87269575D01*
X126340000Y-111339249D01*
X126083529Y-111209696D01*
X125767729Y-111121523D01*
X125440817Y-111096368D01*
X125115245Y-111135191D01*
X124803414Y-111236511D01*
X124517201Y-111396469D01*
X124267509Y-111608974D01*
X124063848Y-111865930D01*
X123913976Y-112157551D01*
X123823600Y-112472728D01*
X123796164Y-112799456D01*
X123832712Y-113125292D01*
X123931853Y-113437822D01*
X124043000Y-113640000D01*
X98462240Y-113640000D01*
X98581237Y-113416198D01*
X98676005Y-113102314D01*
X98708000Y-112776000D01*
X98707345Y-112729092D01*
X98666251Y-112403799D01*
X98572110Y-112120800D01*
X98638728Y-112120800D01*
X98650988Y-112245282D01*
X98687298Y-112364980D01*
X98746263Y-112475294D01*
X98825615Y-112571985D01*
X98922306Y-112651337D01*
X99032620Y-112710302D01*
X99152318Y-112746612D01*
X99276800Y-112758872D01*
X99841050Y-112755800D01*
X99999800Y-112597050D01*
X99999800Y-111397800D01*
X100253800Y-111397800D01*
X100253800Y-112597050D01*
X100412550Y-112755800D01*
X100976800Y-112758872D01*
X101101282Y-112746612D01*
X101220980Y-112710302D01*
X101331294Y-112651337D01*
X101408254Y-112588178D01*
X101462306Y-112632537D01*
X101572620Y-112691502D01*
X101692318Y-112727812D01*
X101816800Y-112740072D01*
X102381050Y-112737000D01*
X102539800Y-112578250D01*
X102539800Y-111379000D01*
X102793800Y-111379000D01*
X102793800Y-112578250D01*
X102952550Y-112737000D01*
X103516800Y-112740072D01*
X103641282Y-112727812D01*
X103760980Y-112691502D01*
X103871294Y-112632537D01*
X103936800Y-112578778D01*
X104002306Y-112632537D01*
X104112620Y-112691502D01*
X104232318Y-112727812D01*
X104356800Y-112740072D01*
X104921050Y-112737000D01*
X105079800Y-112578250D01*
X105079800Y-111379000D01*
X105333800Y-111379000D01*
X105333800Y-112578250D01*
X105492550Y-112737000D01*
X106056800Y-112740072D01*
X106181282Y-112727812D01*
X106300980Y-112691502D01*
X106411294Y-112632537D01*
X106476800Y-112578778D01*
X106542306Y-112632537D01*
X106652620Y-112691502D01*
X106772318Y-112727812D01*
X106896800Y-112740072D01*
X107461050Y-112737000D01*
X107619800Y-112578250D01*
X107619800Y-111379000D01*
X107873800Y-111379000D01*
X107873800Y-112578250D01*
X108032550Y-112737000D01*
X108596800Y-112740072D01*
X108721282Y-112727812D01*
X108840980Y-112691502D01*
X108951294Y-112632537D01*
X109016800Y-112578778D01*
X109082306Y-112632537D01*
X109192620Y-112691502D01*
X109312318Y-112727812D01*
X109436800Y-112740072D01*
X110001050Y-112737000D01*
X110159800Y-112578250D01*
X110159800Y-111379000D01*
X110413800Y-111379000D01*
X110413800Y-112578250D01*
X110572550Y-112737000D01*
X111136800Y-112740072D01*
X111261282Y-112727812D01*
X111380980Y-112691502D01*
X111491294Y-112632537D01*
X111556800Y-112578778D01*
X111622306Y-112632537D01*
X111732620Y-112691502D01*
X111852318Y-112727812D01*
X111976800Y-112740072D01*
X112541050Y-112737000D01*
X112699800Y-112578250D01*
X112699800Y-111379000D01*
X112953800Y-111379000D01*
X112953800Y-112578250D01*
X113112550Y-112737000D01*
X113676800Y-112740072D01*
X113801282Y-112727812D01*
X113920980Y-112691502D01*
X114031294Y-112632537D01*
X114096800Y-112578778D01*
X114162306Y-112632537D01*
X114272620Y-112691502D01*
X114392318Y-112727812D01*
X114516800Y-112740072D01*
X115081050Y-112737000D01*
X115239800Y-112578250D01*
X115239800Y-111379000D01*
X115493800Y-111379000D01*
X115493800Y-112578250D01*
X115652550Y-112737000D01*
X116216800Y-112740072D01*
X116341282Y-112727812D01*
X116460980Y-112691502D01*
X116571294Y-112632537D01*
X116636800Y-112578778D01*
X116702306Y-112632537D01*
X116812620Y-112691502D01*
X116932318Y-112727812D01*
X117056800Y-112740072D01*
X117621050Y-112737000D01*
X117779800Y-112578250D01*
X117779800Y-111379000D01*
X118033800Y-111379000D01*
X118033800Y-112578250D01*
X118192550Y-112737000D01*
X118756800Y-112740072D01*
X118881282Y-112727812D01*
X119000980Y-112691502D01*
X119111294Y-112632537D01*
X119207985Y-112553185D01*
X119287337Y-112456494D01*
X119346302Y-112346180D01*
X119382612Y-112226482D01*
X119394872Y-112102000D01*
X119394596Y-112051200D01*
X120838328Y-112051200D01*
X120850588Y-112175682D01*
X120886898Y-112295380D01*
X120945863Y-112405694D01*
X121025215Y-112502385D01*
X121121906Y-112581737D01*
X121232220Y-112640702D01*
X121351918Y-112677012D01*
X121476400Y-112689272D01*
X122040650Y-112686200D01*
X122199400Y-112527450D01*
X122199400Y-111328200D01*
X122453400Y-111328200D01*
X122453400Y-112527450D01*
X122612150Y-112686200D01*
X123176400Y-112689272D01*
X123300882Y-112677012D01*
X123420580Y-112640702D01*
X123530894Y-112581737D01*
X123627585Y-112502385D01*
X123706937Y-112405694D01*
X123765902Y-112295380D01*
X123802212Y-112175682D01*
X123814472Y-112051200D01*
X123811400Y-111486950D01*
X123652650Y-111328200D01*
X122453400Y-111328200D01*
X122199400Y-111328200D01*
X121000150Y-111328200D01*
X120841400Y-111486950D01*
X120838328Y-112051200D01*
X119394596Y-112051200D01*
X119391800Y-111537750D01*
X119233050Y-111379000D01*
X118033800Y-111379000D01*
X117779800Y-111379000D01*
X115493800Y-111379000D01*
X115239800Y-111379000D01*
X112953800Y-111379000D01*
X112699800Y-111379000D01*
X110413800Y-111379000D01*
X110159800Y-111379000D01*
X107873800Y-111379000D01*
X107619800Y-111379000D01*
X105333800Y-111379000D01*
X105079800Y-111379000D01*
X102793800Y-111379000D01*
X102539800Y-111379000D01*
X101340550Y-111379000D01*
X101321750Y-111397800D01*
X100253800Y-111397800D01*
X99999800Y-111397800D01*
X98800550Y-111397800D01*
X98641800Y-111556550D01*
X98638728Y-112120800D01*
X98572110Y-112120800D01*
X98562756Y-112092682D01*
X98400803Y-111807594D01*
X98186561Y-111559391D01*
X97928189Y-111357529D01*
X97635529Y-111209696D01*
X97319729Y-111121523D01*
X96992817Y-111096368D01*
X96667245Y-111135191D01*
X96355414Y-111236511D01*
X96164000Y-111343488D01*
X96164000Y-89966800D01*
X98634615Y-89966800D01*
X98663287Y-90257911D01*
X98748201Y-90537834D01*
X98886094Y-90795814D01*
X99071666Y-91021934D01*
X99297786Y-91207506D01*
X99352591Y-91236800D01*
X99297786Y-91266094D01*
X99071666Y-91451666D01*
X98886094Y-91677786D01*
X98748201Y-91935766D01*
X98663287Y-92215689D01*
X98634615Y-92506800D01*
X98663287Y-92797911D01*
X98748201Y-93077834D01*
X98886094Y-93335814D01*
X99071666Y-93561934D01*
X99297786Y-93747506D01*
X99364800Y-93783326D01*
X99364801Y-96574728D01*
X99276800Y-96574728D01*
X99152318Y-96586988D01*
X99032620Y-96623298D01*
X98922306Y-96682263D01*
X98825615Y-96761615D01*
X98746263Y-96858306D01*
X98687298Y-96968620D01*
X98650988Y-97088318D01*
X98638728Y-97212800D01*
X98638728Y-98912800D01*
X98650988Y-99037282D01*
X98687298Y-99156980D01*
X98746263Y-99267294D01*
X98813153Y-99348800D01*
X98746263Y-99430306D01*
X98687298Y-99540620D01*
X98650988Y-99660318D01*
X98638728Y-99784800D01*
X98638728Y-101484800D01*
X98650988Y-101609282D01*
X98687298Y-101728980D01*
X98746263Y-101839294D01*
X98825615Y-101935985D01*
X98922306Y-102015337D01*
X99032620Y-102074302D01*
X99152318Y-102110612D01*
X99276800Y-102122872D01*
X99364801Y-102122872D01*
X99364800Y-104914274D01*
X99297786Y-104950094D01*
X99071666Y-105135666D01*
X98886094Y-105361786D01*
X98748201Y-105619766D01*
X98663287Y-105899689D01*
X98634615Y-106190800D01*
X98663287Y-106481911D01*
X98748201Y-106761834D01*
X98886094Y-107019814D01*
X99071666Y-107245934D01*
X99297786Y-107431506D01*
X99352591Y-107460800D01*
X99297786Y-107490094D01*
X99071666Y-107675666D01*
X98886094Y-107901786D01*
X98748201Y-108159766D01*
X98663287Y-108439689D01*
X98634615Y-108730800D01*
X98663287Y-109021911D01*
X98748201Y-109301834D01*
X98886094Y-109559814D01*
X99071666Y-109785934D01*
X99101487Y-109810407D01*
X99032620Y-109831298D01*
X98922306Y-109890263D01*
X98825615Y-109969615D01*
X98746263Y-110066306D01*
X98687298Y-110176620D01*
X98650988Y-110296318D01*
X98638728Y-110420800D01*
X98641800Y-110985050D01*
X98800550Y-111143800D01*
X99999800Y-111143800D01*
X99999800Y-111123800D01*
X100253800Y-111123800D01*
X100253800Y-111143800D01*
X101453050Y-111143800D01*
X101471850Y-111125000D01*
X102539800Y-111125000D01*
X102539800Y-111105000D01*
X102793800Y-111105000D01*
X102793800Y-111125000D01*
X105079800Y-111125000D01*
X105079800Y-111105000D01*
X105333800Y-111105000D01*
X105333800Y-111125000D01*
X107619800Y-111125000D01*
X107619800Y-111105000D01*
X107873800Y-111105000D01*
X107873800Y-111125000D01*
X110159800Y-111125000D01*
X110159800Y-111105000D01*
X110413800Y-111105000D01*
X110413800Y-111125000D01*
X112699800Y-111125000D01*
X112699800Y-111105000D01*
X112953800Y-111105000D01*
X112953800Y-111125000D01*
X115239800Y-111125000D01*
X115239800Y-111105000D01*
X115493800Y-111105000D01*
X115493800Y-111125000D01*
X117779800Y-111125000D01*
X117779800Y-111105000D01*
X118033800Y-111105000D01*
X118033800Y-111125000D01*
X119233050Y-111125000D01*
X119391800Y-110966250D01*
X119394872Y-110402000D01*
X119382612Y-110277518D01*
X119346302Y-110157820D01*
X119287337Y-110047506D01*
X119207985Y-109950815D01*
X119111294Y-109871463D01*
X119000980Y-109812498D01*
X118932113Y-109791607D01*
X118961934Y-109767134D01*
X119147506Y-109541014D01*
X119285399Y-109283034D01*
X119370313Y-109003111D01*
X119382636Y-108877996D01*
X119504992Y-109027088D01*
X119558305Y-109070841D01*
X120087955Y-109600491D01*
X120131711Y-109653808D01*
X120344432Y-109828383D01*
X120431553Y-109874950D01*
X120587123Y-109958104D01*
X120850459Y-110037986D01*
X120920130Y-110044848D01*
X120886898Y-110107020D01*
X120850588Y-110226718D01*
X120838328Y-110351200D01*
X120841400Y-110915450D01*
X121000150Y-111074200D01*
X122199400Y-111074200D01*
X122199400Y-111054200D01*
X122453400Y-111054200D01*
X122453400Y-111074200D01*
X123652650Y-111074200D01*
X123811400Y-110915450D01*
X123814472Y-110351200D01*
X123802212Y-110226718D01*
X123765902Y-110107020D01*
X123706937Y-109996706D01*
X123627585Y-109900015D01*
X123530894Y-109820663D01*
X123420580Y-109761698D01*
X123351713Y-109740807D01*
X123381534Y-109716334D01*
X123567106Y-109490214D01*
X123704999Y-109232234D01*
X123789913Y-108952311D01*
X123818585Y-108661200D01*
X123789913Y-108370089D01*
X123704999Y-108090166D01*
X123567106Y-107832186D01*
X123381534Y-107606066D01*
X123155414Y-107420494D01*
X123100609Y-107391200D01*
X123155414Y-107361906D01*
X123381534Y-107176334D01*
X123567106Y-106950214D01*
X123704999Y-106692234D01*
X123789913Y-106412311D01*
X123818585Y-106121200D01*
X123789913Y-105830089D01*
X123704999Y-105550166D01*
X123567106Y-105292186D01*
X123381534Y-105066066D01*
X123155414Y-104880494D01*
X122897434Y-104742601D01*
X122617511Y-104657687D01*
X122399350Y-104636200D01*
X122253450Y-104636200D01*
X122035289Y-104657687D01*
X121894600Y-104700365D01*
X121894600Y-102991455D01*
X122813984Y-102072072D01*
X123176400Y-102072072D01*
X123300882Y-102059812D01*
X123420580Y-102023502D01*
X123530894Y-101964537D01*
X123627585Y-101885185D01*
X123706937Y-101788494D01*
X123765902Y-101678180D01*
X123802212Y-101558482D01*
X123814472Y-101434000D01*
X123814472Y-99734000D01*
X123802212Y-99609518D01*
X123765902Y-99489820D01*
X123706937Y-99379506D01*
X123627585Y-99282815D01*
X123530894Y-99203463D01*
X123420580Y-99144498D01*
X123351713Y-99123607D01*
X123381534Y-99099134D01*
X123567106Y-98873014D01*
X123704999Y-98615034D01*
X123789913Y-98335111D01*
X123818585Y-98044000D01*
X123789913Y-97752889D01*
X123704999Y-97472966D01*
X123567106Y-97214986D01*
X123381534Y-96988866D01*
X123155414Y-96803294D01*
X122897434Y-96665401D01*
X122617511Y-96580487D01*
X122399350Y-96559000D01*
X122253450Y-96559000D01*
X122035289Y-96580487D01*
X121755366Y-96665401D01*
X121497386Y-96803294D01*
X121271266Y-96988866D01*
X121085694Y-97214986D01*
X120947801Y-97472966D01*
X120862887Y-97752889D01*
X120834215Y-98044000D01*
X120862887Y-98335111D01*
X120947801Y-98615034D01*
X121085694Y-98873014D01*
X121271266Y-99099134D01*
X121301087Y-99123607D01*
X121232220Y-99144498D01*
X121121906Y-99203463D01*
X121025215Y-99282815D01*
X120945863Y-99379506D01*
X120886898Y-99489820D01*
X120850588Y-99609518D01*
X120838328Y-99734000D01*
X120838328Y-100096416D01*
X119558304Y-101376441D01*
X119504993Y-101420192D01*
X119330418Y-101632913D01*
X119247259Y-101788494D01*
X119200697Y-101875605D01*
X119120814Y-102138941D01*
X119093841Y-102412800D01*
X119100601Y-102481435D01*
X119100600Y-105285832D01*
X118961934Y-105116866D01*
X118735814Y-104931294D01*
X118668800Y-104895474D01*
X118668800Y-101911326D01*
X118735814Y-101875506D01*
X118961934Y-101689934D01*
X119147506Y-101463814D01*
X119285399Y-101205834D01*
X119370313Y-100925911D01*
X119398985Y-100634800D01*
X119370313Y-100343689D01*
X119285399Y-100063766D01*
X119147506Y-99805786D01*
X118961934Y-99579666D01*
X118735814Y-99394094D01*
X118651075Y-99348800D01*
X118735814Y-99303506D01*
X118961934Y-99117934D01*
X119147506Y-98891814D01*
X119285399Y-98633834D01*
X119370313Y-98353911D01*
X119398985Y-98062800D01*
X119370313Y-97771689D01*
X119285399Y-97491766D01*
X119147506Y-97233786D01*
X118961934Y-97007666D01*
X118735814Y-96822094D01*
X118668800Y-96786274D01*
X118668800Y-93783326D01*
X118735814Y-93747506D01*
X118961934Y-93561934D01*
X119147506Y-93335814D01*
X119285399Y-93077834D01*
X119370313Y-92797911D01*
X119398985Y-92506800D01*
X119370313Y-92215689D01*
X119285399Y-91935766D01*
X119147506Y-91677786D01*
X118961934Y-91451666D01*
X118735814Y-91266094D01*
X118681009Y-91236800D01*
X118735814Y-91207506D01*
X118961934Y-91021934D01*
X119147506Y-90795814D01*
X119285399Y-90537834D01*
X119370313Y-90257911D01*
X119398985Y-89966800D01*
X119370313Y-89675689D01*
X119285399Y-89395766D01*
X119147506Y-89137786D01*
X118961934Y-88911666D01*
X118932113Y-88887193D01*
X119000980Y-88866302D01*
X119111294Y-88807337D01*
X119207985Y-88727985D01*
X119287337Y-88631294D01*
X119346302Y-88520980D01*
X119382612Y-88401282D01*
X119394872Y-88276800D01*
X120838328Y-88276800D01*
X120850588Y-88401282D01*
X120886898Y-88520980D01*
X120945863Y-88631294D01*
X121025215Y-88727985D01*
X121121906Y-88807337D01*
X121232220Y-88866302D01*
X121351918Y-88902612D01*
X121476400Y-88914872D01*
X122040650Y-88911800D01*
X122199400Y-88753050D01*
X122199400Y-87553800D01*
X122453400Y-87553800D01*
X122453400Y-88753050D01*
X122612150Y-88911800D01*
X123176400Y-88914872D01*
X123300882Y-88902612D01*
X123420580Y-88866302D01*
X123530894Y-88807337D01*
X123627585Y-88727985D01*
X123706937Y-88631294D01*
X123765902Y-88520980D01*
X123802212Y-88401282D01*
X123814472Y-88276800D01*
X123811400Y-87712550D01*
X123652650Y-87553800D01*
X122453400Y-87553800D01*
X122199400Y-87553800D01*
X121000150Y-87553800D01*
X120841400Y-87712550D01*
X120838328Y-88276800D01*
X119394872Y-88276800D01*
X119391800Y-87712550D01*
X119233050Y-87553800D01*
X118033800Y-87553800D01*
X118033800Y-87573800D01*
X117779800Y-87573800D01*
X117779800Y-87553800D01*
X115493800Y-87553800D01*
X115493800Y-87573800D01*
X115239800Y-87573800D01*
X115239800Y-87553800D01*
X112953800Y-87553800D01*
X112953800Y-87573800D01*
X112699800Y-87573800D01*
X112699800Y-87553800D01*
X110413800Y-87553800D01*
X110413800Y-87573800D01*
X110159800Y-87573800D01*
X110159800Y-87553800D01*
X107873800Y-87553800D01*
X107873800Y-87573800D01*
X107619800Y-87573800D01*
X107619800Y-87553800D01*
X105333800Y-87553800D01*
X105333800Y-87573800D01*
X105079800Y-87573800D01*
X105079800Y-87553800D01*
X102793800Y-87553800D01*
X102793800Y-87573800D01*
X102539800Y-87573800D01*
X102539800Y-87553800D01*
X100253800Y-87553800D01*
X100253800Y-87573800D01*
X99999800Y-87573800D01*
X99999800Y-87553800D01*
X98800550Y-87553800D01*
X98641800Y-87712550D01*
X98638728Y-88276800D01*
X98650988Y-88401282D01*
X98687298Y-88520980D01*
X98746263Y-88631294D01*
X98825615Y-88727985D01*
X98922306Y-88807337D01*
X99032620Y-88866302D01*
X99101487Y-88887193D01*
X99071666Y-88911666D01*
X98886094Y-89137786D01*
X98748201Y-89395766D01*
X98663287Y-89675689D01*
X98634615Y-89966800D01*
X96164000Y-89966800D01*
X96164000Y-87286991D01*
X96398661Y-87409669D01*
X96713199Y-87502243D01*
X97039729Y-87531959D01*
X97365811Y-87497686D01*
X97679026Y-87400730D01*
X97967444Y-87244783D01*
X98220079Y-87035785D01*
X98427308Y-86781698D01*
X98536253Y-86576800D01*
X98638728Y-86576800D01*
X98641800Y-87141050D01*
X98800550Y-87299800D01*
X99999800Y-87299800D01*
X99999800Y-86100550D01*
X100253800Y-86100550D01*
X100253800Y-87299800D01*
X102539800Y-87299800D01*
X102539800Y-86100550D01*
X102793800Y-86100550D01*
X102793800Y-87299800D01*
X105079800Y-87299800D01*
X105079800Y-86100550D01*
X105333800Y-86100550D01*
X105333800Y-87299800D01*
X107619800Y-87299800D01*
X107619800Y-86100550D01*
X107873800Y-86100550D01*
X107873800Y-87299800D01*
X110159800Y-87299800D01*
X110159800Y-86100550D01*
X110413800Y-86100550D01*
X110413800Y-87299800D01*
X112699800Y-87299800D01*
X112699800Y-86100550D01*
X112953800Y-86100550D01*
X112953800Y-87299800D01*
X115239800Y-87299800D01*
X115239800Y-86100550D01*
X115493800Y-86100550D01*
X115493800Y-87299800D01*
X117779800Y-87299800D01*
X117779800Y-86100550D01*
X118033800Y-86100550D01*
X118033800Y-87299800D01*
X119233050Y-87299800D01*
X119391800Y-87141050D01*
X119394872Y-86576800D01*
X120838328Y-86576800D01*
X120841400Y-87141050D01*
X121000150Y-87299800D01*
X122199400Y-87299800D01*
X122199400Y-86100550D01*
X122453400Y-86100550D01*
X122453400Y-87299800D01*
X123652650Y-87299800D01*
X123811400Y-87141050D01*
X123814472Y-86576800D01*
X123802212Y-86452318D01*
X123765902Y-86332620D01*
X123706937Y-86222306D01*
X123627585Y-86125615D01*
X123530894Y-86046263D01*
X123420580Y-85987298D01*
X123300882Y-85950988D01*
X123176400Y-85938728D01*
X122612150Y-85941800D01*
X122453400Y-86100550D01*
X122199400Y-86100550D01*
X122040650Y-85941800D01*
X121476400Y-85938728D01*
X121351918Y-85950988D01*
X121232220Y-85987298D01*
X121121906Y-86046263D01*
X121025215Y-86125615D01*
X120945863Y-86222306D01*
X120886898Y-86332620D01*
X120850588Y-86452318D01*
X120838328Y-86576800D01*
X119394872Y-86576800D01*
X119382612Y-86452318D01*
X119346302Y-86332620D01*
X119287337Y-86222306D01*
X119207985Y-86125615D01*
X119111294Y-86046263D01*
X119000980Y-85987298D01*
X118881282Y-85950988D01*
X118756800Y-85938728D01*
X118192550Y-85941800D01*
X118033800Y-86100550D01*
X117779800Y-86100550D01*
X117621050Y-85941800D01*
X117056800Y-85938728D01*
X116932318Y-85950988D01*
X116812620Y-85987298D01*
X116702306Y-86046263D01*
X116636800Y-86100022D01*
X116571294Y-86046263D01*
X116460980Y-85987298D01*
X116341282Y-85950988D01*
X116216800Y-85938728D01*
X115652550Y-85941800D01*
X115493800Y-86100550D01*
X115239800Y-86100550D01*
X115081050Y-85941800D01*
X114516800Y-85938728D01*
X114392318Y-85950988D01*
X114272620Y-85987298D01*
X114162306Y-86046263D01*
X114096800Y-86100022D01*
X114031294Y-86046263D01*
X113920980Y-85987298D01*
X113801282Y-85950988D01*
X113676800Y-85938728D01*
X113112550Y-85941800D01*
X112953800Y-86100550D01*
X112699800Y-86100550D01*
X112541050Y-85941800D01*
X111976800Y-85938728D01*
X111852318Y-85950988D01*
X111732620Y-85987298D01*
X111622306Y-86046263D01*
X111556800Y-86100022D01*
X111491294Y-86046263D01*
X111380980Y-85987298D01*
X111261282Y-85950988D01*
X111136800Y-85938728D01*
X110572550Y-85941800D01*
X110413800Y-86100550D01*
X110159800Y-86100550D01*
X110001050Y-85941800D01*
X109436800Y-85938728D01*
X109312318Y-85950988D01*
X109192620Y-85987298D01*
X109082306Y-86046263D01*
X109016800Y-86100022D01*
X108951294Y-86046263D01*
X108840980Y-85987298D01*
X108721282Y-85950988D01*
X108596800Y-85938728D01*
X108032550Y-85941800D01*
X107873800Y-86100550D01*
X107619800Y-86100550D01*
X107461050Y-85941800D01*
X106896800Y-85938728D01*
X106772318Y-85950988D01*
X106652620Y-85987298D01*
X106542306Y-86046263D01*
X106476800Y-86100022D01*
X106411294Y-86046263D01*
X106300980Y-85987298D01*
X106181282Y-85950988D01*
X106056800Y-85938728D01*
X105492550Y-85941800D01*
X105333800Y-86100550D01*
X105079800Y-86100550D01*
X104921050Y-85941800D01*
X104356800Y-85938728D01*
X104232318Y-85950988D01*
X104112620Y-85987298D01*
X104002306Y-86046263D01*
X103936800Y-86100022D01*
X103871294Y-86046263D01*
X103760980Y-85987298D01*
X103641282Y-85950988D01*
X103516800Y-85938728D01*
X102952550Y-85941800D01*
X102793800Y-86100550D01*
X102539800Y-86100550D01*
X102381050Y-85941800D01*
X101816800Y-85938728D01*
X101692318Y-85950988D01*
X101572620Y-85987298D01*
X101462306Y-86046263D01*
X101396800Y-86100022D01*
X101331294Y-86046263D01*
X101220980Y-85987298D01*
X101101282Y-85950988D01*
X100976800Y-85938728D01*
X100412550Y-85941800D01*
X100253800Y-86100550D01*
X99999800Y-86100550D01*
X99841050Y-85941800D01*
X99276800Y-85938728D01*
X99152318Y-85950988D01*
X99032620Y-85987298D01*
X98922306Y-86046263D01*
X98825615Y-86125615D01*
X98746263Y-86222306D01*
X98687298Y-86332620D01*
X98650988Y-86452318D01*
X98638728Y-86576800D01*
X98536253Y-86576800D01*
X98581237Y-86492198D01*
X98676005Y-86178314D01*
X98708000Y-85852000D01*
X98707345Y-85805092D01*
X98666251Y-85479799D01*
X98562756Y-85168682D01*
X98460114Y-84988000D01*
X124031949Y-84988000D01*
X123913976Y-85217551D01*
M02*
