M48
; DRILL file {KiCad 5.1.1-8be2ce7~80~ubuntu16.04.1} date lun 29 abr 2019 10:19:40 CEST
; FORMAT={-:-/ absolute / inch / decimal}
; #@! TF.CreationDate,2019-04-29T10:19:40+02:00
; #@! TF.GenerationSoftware,Kicad,Pcbnew,5.1.1-8be2ce7~80~ubuntu16.04.1
; #@! TF.FileFunction,Plated,1,2,PTH
FMAT,2
INCH
T1C0.0394
%
G90
G05
T1
X4.442Y-4.18
X4.442Y-4.28
X4.442Y-4.38
X3.942Y-4.1807
X3.942Y-4.2807
X3.942Y-4.3807
X4.342Y-4.18
X4.342Y-4.28
X4.342Y-4.38
X4.342Y-3.442
X4.342Y-3.542
X4.342Y-3.642
X4.042Y-3.442
X4.042Y-3.542
X4.042Y-3.642
X4.542Y-3.442
X4.542Y-3.542
X4.542Y-3.642
X4.142Y-3.442
X4.142Y-3.542
X4.142Y-3.642
X4.816Y-3.86
X4.816Y-3.96
X4.642Y-4.18
X4.642Y-4.28
X4.642Y-4.38
X4.816Y-4.178
X4.816Y-4.278
X4.816Y-4.378
X4.142Y-4.18
X4.142Y-4.28
X4.142Y-4.38
X4.242Y-3.442
X4.242Y-3.542
X4.242Y-3.642
X3.942Y-3.442
X3.942Y-3.542
X3.942Y-3.642
X4.542Y-4.18
X4.542Y-4.28
X4.542Y-4.38
X3.942Y-3.962
X4.042Y-3.962
X4.142Y-3.962
X4.242Y-3.962
X4.342Y-3.962
X4.442Y-3.962
X4.542Y-3.962
X4.642Y-3.962
X4.242Y-4.18
X4.242Y-4.28
X4.242Y-4.38
X4.642Y-3.442
X4.642Y-3.542
X4.642Y-3.642
X3.942Y-3.8607
X4.042Y-3.8607
X4.142Y-3.8607
X4.242Y-3.8607
X4.342Y-3.8607
X4.442Y-3.8607
X4.542Y-3.8607
X4.642Y-3.8607
X4.442Y-3.442
X4.442Y-3.542
X4.442Y-3.642
X4.816Y-3.442
X4.042Y-4.18
X4.042Y-4.28
X4.042Y-4.38
T0
M30
