G04 #@! TF.GenerationSoftware,KiCad,Pcbnew,5.1.1-8be2ce7~80~ubuntu16.04.1*
G04 #@! TF.CreationDate,2019-04-29T10:17:37+02:00*
G04 #@! TF.ProjectId,servomotors_ext_pwr_adaptor,73657276-6f6d-46f7-946f-72735f657874,rev?*
G04 #@! TF.SameCoordinates,Original*
G04 #@! TF.FileFunction,Legend,Top*
G04 #@! TF.FilePolarity,Positive*
%FSLAX46Y46*%
G04 Gerber Fmt 4.6, Leading zero omitted, Abs format (unit mm)*
G04 Created by KiCad (PCBNEW 5.1.1-8be2ce7~80~ubuntu16.04.1) date 2019-04-29 10:17:37*
%MOMM*%
%LPD*%
G04 APERTURE LIST*
%ADD10C,0.300000*%
%ADD11C,0.150000*%
%ADD12C,0.120000*%
G04 APERTURE END LIST*
D10*
X126205371Y-101161600D02*
X124705371Y-101161600D01*
X124705371Y-100590171D01*
X124776800Y-100447314D01*
X124848228Y-100375885D01*
X124991085Y-100304457D01*
X125205371Y-100304457D01*
X125348228Y-100375885D01*
X125419657Y-100447314D01*
X125491085Y-100590171D01*
X125491085Y-101161600D01*
X124705371Y-99804457D02*
X126205371Y-99447314D01*
X125133942Y-99161600D01*
X126205371Y-98875885D01*
X124705371Y-98518742D01*
X126205371Y-97947314D02*
X124705371Y-97947314D01*
X124705371Y-97590171D01*
X124776800Y-97375885D01*
X124919657Y-97233028D01*
X125062514Y-97161600D01*
X125348228Y-97090171D01*
X125562514Y-97090171D01*
X125848228Y-97161600D01*
X125991085Y-97233028D01*
X126133942Y-97375885D01*
X126205371Y-97590171D01*
X126205371Y-97947314D01*
D11*
X124025066Y-108164380D02*
X124358400Y-109164380D01*
X124691733Y-108164380D01*
X124569504Y-110752000D02*
X124474266Y-110704380D01*
X124331409Y-110704380D01*
X124188552Y-110752000D01*
X124093314Y-110847238D01*
X124045695Y-110942476D01*
X123998076Y-111132952D01*
X123998076Y-111275809D01*
X124045695Y-111466285D01*
X124093314Y-111561523D01*
X124188552Y-111656761D01*
X124331409Y-111704380D01*
X124426647Y-111704380D01*
X124569504Y-111656761D01*
X124617123Y-111609142D01*
X124617123Y-111275809D01*
X124426647Y-111275809D01*
D12*
X98796800Y-86096800D02*
X100126800Y-86096800D01*
X98796800Y-87426800D02*
X98796800Y-86096800D01*
X98796800Y-88696800D02*
X101456800Y-88696800D01*
X101456800Y-88696800D02*
X101456800Y-93836800D01*
X98796800Y-88696800D02*
X98796800Y-93836800D01*
X98796800Y-93836800D02*
X101456800Y-93836800D01*
X101336800Y-93836800D02*
X103996800Y-93836800D01*
X101336800Y-88696800D02*
X101336800Y-93836800D01*
X103996800Y-88696800D02*
X103996800Y-93836800D01*
X101336800Y-88696800D02*
X103996800Y-88696800D01*
X101336800Y-87426800D02*
X101336800Y-86096800D01*
X101336800Y-86096800D02*
X102666800Y-86096800D01*
X103876800Y-86096800D02*
X105206800Y-86096800D01*
X103876800Y-87426800D02*
X103876800Y-86096800D01*
X103876800Y-88696800D02*
X106536800Y-88696800D01*
X106536800Y-88696800D02*
X106536800Y-93836800D01*
X103876800Y-88696800D02*
X103876800Y-93836800D01*
X103876800Y-93836800D02*
X106536800Y-93836800D01*
X106416800Y-93836800D02*
X109076800Y-93836800D01*
X106416800Y-88696800D02*
X106416800Y-93836800D01*
X109076800Y-88696800D02*
X109076800Y-93836800D01*
X106416800Y-88696800D02*
X109076800Y-88696800D01*
X106416800Y-87426800D02*
X106416800Y-86096800D01*
X106416800Y-86096800D02*
X107746800Y-86096800D01*
X108956800Y-86096800D02*
X110286800Y-86096800D01*
X108956800Y-87426800D02*
X108956800Y-86096800D01*
X108956800Y-88696800D02*
X111616800Y-88696800D01*
X111616800Y-88696800D02*
X111616800Y-93836800D01*
X108956800Y-88696800D02*
X108956800Y-93836800D01*
X108956800Y-93836800D02*
X111616800Y-93836800D01*
X111496800Y-93836800D02*
X114156800Y-93836800D01*
X111496800Y-88696800D02*
X111496800Y-93836800D01*
X114156800Y-88696800D02*
X114156800Y-93836800D01*
X111496800Y-88696800D02*
X114156800Y-88696800D01*
X111496800Y-87426800D02*
X111496800Y-86096800D01*
X111496800Y-86096800D02*
X112826800Y-86096800D01*
X114036800Y-86096800D02*
X115366800Y-86096800D01*
X114036800Y-87426800D02*
X114036800Y-86096800D01*
X114036800Y-88696800D02*
X116696800Y-88696800D01*
X116696800Y-88696800D02*
X116696800Y-93836800D01*
X114036800Y-88696800D02*
X114036800Y-93836800D01*
X114036800Y-93836800D02*
X116696800Y-93836800D01*
X116576800Y-93836800D02*
X119236800Y-93836800D01*
X116576800Y-88696800D02*
X116576800Y-93836800D01*
X119236800Y-88696800D02*
X119236800Y-93836800D01*
X116576800Y-88696800D02*
X119236800Y-88696800D01*
X116576800Y-87426800D02*
X116576800Y-86096800D01*
X116576800Y-86096800D02*
X117906800Y-86096800D01*
X98796800Y-99392800D02*
X98796800Y-98062800D01*
X100126800Y-99392800D02*
X98796800Y-99392800D01*
X101396800Y-99392800D02*
X101396800Y-96732800D01*
X101396800Y-96732800D02*
X119236800Y-96732800D01*
X101396800Y-99392800D02*
X119236800Y-99392800D01*
X119236800Y-99392800D02*
X119236800Y-96732800D01*
X123656400Y-104791200D02*
X120996400Y-104791200D01*
X123656400Y-109931200D02*
X123656400Y-104791200D01*
X120996400Y-109931200D02*
X120996400Y-104791200D01*
X123656400Y-109931200D02*
X120996400Y-109931200D01*
X123656400Y-111201200D02*
X123656400Y-112531200D01*
X123656400Y-112531200D02*
X122326400Y-112531200D01*
X119236800Y-101964800D02*
X119236800Y-99304800D01*
X101396800Y-101964800D02*
X119236800Y-101964800D01*
X101396800Y-99304800D02*
X119236800Y-99304800D01*
X101396800Y-101964800D02*
X101396800Y-99304800D01*
X100126800Y-101964800D02*
X98796800Y-101964800D01*
X98796800Y-101964800D02*
X98796800Y-100634800D01*
X101456800Y-112600800D02*
X100126800Y-112600800D01*
X101456800Y-111270800D02*
X101456800Y-112600800D01*
X101456800Y-110000800D02*
X98796800Y-110000800D01*
X98796800Y-110000800D02*
X98796800Y-104860800D01*
X101456800Y-110000800D02*
X101456800Y-104860800D01*
X101456800Y-104860800D02*
X98796800Y-104860800D01*
X103996800Y-104842000D02*
X101336800Y-104842000D01*
X103996800Y-109982000D02*
X103996800Y-104842000D01*
X101336800Y-109982000D02*
X101336800Y-104842000D01*
X103996800Y-109982000D02*
X101336800Y-109982000D01*
X103996800Y-111252000D02*
X103996800Y-112582000D01*
X103996800Y-112582000D02*
X102666800Y-112582000D01*
X106536800Y-104842000D02*
X103876800Y-104842000D01*
X106536800Y-109982000D02*
X106536800Y-104842000D01*
X103876800Y-109982000D02*
X103876800Y-104842000D01*
X106536800Y-109982000D02*
X103876800Y-109982000D01*
X106536800Y-111252000D02*
X106536800Y-112582000D01*
X106536800Y-112582000D02*
X105206800Y-112582000D01*
X109076800Y-112582000D02*
X107746800Y-112582000D01*
X109076800Y-111252000D02*
X109076800Y-112582000D01*
X109076800Y-109982000D02*
X106416800Y-109982000D01*
X106416800Y-109982000D02*
X106416800Y-104842000D01*
X109076800Y-109982000D02*
X109076800Y-104842000D01*
X109076800Y-104842000D02*
X106416800Y-104842000D01*
X111616800Y-104842000D02*
X108956800Y-104842000D01*
X111616800Y-109982000D02*
X111616800Y-104842000D01*
X108956800Y-109982000D02*
X108956800Y-104842000D01*
X111616800Y-109982000D02*
X108956800Y-109982000D01*
X111616800Y-111252000D02*
X111616800Y-112582000D01*
X111616800Y-112582000D02*
X110286800Y-112582000D01*
X114156800Y-112582000D02*
X112826800Y-112582000D01*
X114156800Y-111252000D02*
X114156800Y-112582000D01*
X114156800Y-109982000D02*
X111496800Y-109982000D01*
X111496800Y-109982000D02*
X111496800Y-104842000D01*
X114156800Y-109982000D02*
X114156800Y-104842000D01*
X114156800Y-104842000D02*
X111496800Y-104842000D01*
X116696800Y-104842000D02*
X114036800Y-104842000D01*
X116696800Y-109982000D02*
X116696800Y-104842000D01*
X114036800Y-109982000D02*
X114036800Y-104842000D01*
X116696800Y-109982000D02*
X114036800Y-109982000D01*
X116696800Y-111252000D02*
X116696800Y-112582000D01*
X116696800Y-112582000D02*
X115366800Y-112582000D01*
X119236800Y-112582000D02*
X117906800Y-112582000D01*
X119236800Y-111252000D02*
X119236800Y-112582000D01*
X119236800Y-109982000D02*
X116576800Y-109982000D01*
X116576800Y-109982000D02*
X116576800Y-104842000D01*
X119236800Y-109982000D02*
X119236800Y-104842000D01*
X119236800Y-104842000D02*
X116576800Y-104842000D01*
X120996400Y-88756800D02*
X123656400Y-88756800D01*
X120996400Y-88636800D02*
X120996400Y-88756800D01*
X123656400Y-88636800D02*
X123656400Y-88756800D01*
X123656400Y-86096800D02*
X123656400Y-87426800D01*
X122326400Y-86096800D02*
X123656400Y-86096800D01*
X123656400Y-96714000D02*
X120996400Y-96714000D01*
X123656400Y-99314000D02*
X123656400Y-96714000D01*
X120996400Y-99314000D02*
X120996400Y-96714000D01*
X123656400Y-99314000D02*
X120996400Y-99314000D01*
X123656400Y-100584000D02*
X123656400Y-101914000D01*
X123656400Y-101914000D02*
X122326400Y-101914000D01*
D11*
X99793466Y-94702380D02*
X99793466Y-95416666D01*
X99745847Y-95559523D01*
X99650609Y-95654761D01*
X99507752Y-95702380D01*
X99412514Y-95702380D01*
X100793466Y-95702380D02*
X100222038Y-95702380D01*
X100507752Y-95702380D02*
X100507752Y-94702380D01*
X100412514Y-94845238D01*
X100317276Y-94940476D01*
X100222038Y-94988095D01*
X102333466Y-94702380D02*
X102333466Y-95416666D01*
X102285847Y-95559523D01*
X102190609Y-95654761D01*
X102047752Y-95702380D01*
X101952514Y-95702380D01*
X102762038Y-94797619D02*
X102809657Y-94750000D01*
X102904895Y-94702380D01*
X103142990Y-94702380D01*
X103238228Y-94750000D01*
X103285847Y-94797619D01*
X103333466Y-94892857D01*
X103333466Y-94988095D01*
X103285847Y-95130952D01*
X102714419Y-95702380D01*
X103333466Y-95702380D01*
X104873466Y-94702380D02*
X104873466Y-95416666D01*
X104825847Y-95559523D01*
X104730609Y-95654761D01*
X104587752Y-95702380D01*
X104492514Y-95702380D01*
X105254419Y-94702380D02*
X105873466Y-94702380D01*
X105540133Y-95083333D01*
X105682990Y-95083333D01*
X105778228Y-95130952D01*
X105825847Y-95178571D01*
X105873466Y-95273809D01*
X105873466Y-95511904D01*
X105825847Y-95607142D01*
X105778228Y-95654761D01*
X105682990Y-95702380D01*
X105397276Y-95702380D01*
X105302038Y-95654761D01*
X105254419Y-95607142D01*
X107413466Y-94702380D02*
X107413466Y-95416666D01*
X107365847Y-95559523D01*
X107270609Y-95654761D01*
X107127752Y-95702380D01*
X107032514Y-95702380D01*
X108318228Y-95035714D02*
X108318228Y-95702380D01*
X108080133Y-94654761D02*
X107842038Y-95369047D01*
X108461085Y-95369047D01*
X109953466Y-94702380D02*
X109953466Y-95416666D01*
X109905847Y-95559523D01*
X109810609Y-95654761D01*
X109667752Y-95702380D01*
X109572514Y-95702380D01*
X110905847Y-94702380D02*
X110429657Y-94702380D01*
X110382038Y-95178571D01*
X110429657Y-95130952D01*
X110524895Y-95083333D01*
X110762990Y-95083333D01*
X110858228Y-95130952D01*
X110905847Y-95178571D01*
X110953466Y-95273809D01*
X110953466Y-95511904D01*
X110905847Y-95607142D01*
X110858228Y-95654761D01*
X110762990Y-95702380D01*
X110524895Y-95702380D01*
X110429657Y-95654761D01*
X110382038Y-95607142D01*
X112493466Y-94702380D02*
X112493466Y-95416666D01*
X112445847Y-95559523D01*
X112350609Y-95654761D01*
X112207752Y-95702380D01*
X112112514Y-95702380D01*
X113398228Y-94702380D02*
X113207752Y-94702380D01*
X113112514Y-94750000D01*
X113064895Y-94797619D01*
X112969657Y-94940476D01*
X112922038Y-95130952D01*
X112922038Y-95511904D01*
X112969657Y-95607142D01*
X113017276Y-95654761D01*
X113112514Y-95702380D01*
X113302990Y-95702380D01*
X113398228Y-95654761D01*
X113445847Y-95607142D01*
X113493466Y-95511904D01*
X113493466Y-95273809D01*
X113445847Y-95178571D01*
X113398228Y-95130952D01*
X113302990Y-95083333D01*
X113112514Y-95083333D01*
X113017276Y-95130952D01*
X112969657Y-95178571D01*
X112922038Y-95273809D01*
X115033466Y-94702380D02*
X115033466Y-95416666D01*
X114985847Y-95559523D01*
X114890609Y-95654761D01*
X114747752Y-95702380D01*
X114652514Y-95702380D01*
X115414419Y-94702380D02*
X116081085Y-94702380D01*
X115652514Y-95702380D01*
X117573466Y-94702380D02*
X117573466Y-95416666D01*
X117525847Y-95559523D01*
X117430609Y-95654761D01*
X117287752Y-95702380D01*
X117192514Y-95702380D01*
X118192514Y-95130952D02*
X118097276Y-95083333D01*
X118049657Y-95035714D01*
X118002038Y-94940476D01*
X118002038Y-94892857D01*
X118049657Y-94797619D01*
X118097276Y-94750000D01*
X118192514Y-94702380D01*
X118382990Y-94702380D01*
X118478228Y-94750000D01*
X118525847Y-94797619D01*
X118573466Y-94892857D01*
X118573466Y-94940476D01*
X118525847Y-95035714D01*
X118478228Y-95083333D01*
X118382990Y-95130952D01*
X118192514Y-95130952D01*
X118097276Y-95178571D01*
X118049657Y-95226190D01*
X118002038Y-95321428D01*
X118002038Y-95511904D01*
X118049657Y-95607142D01*
X118097276Y-95654761D01*
X118192514Y-95702380D01*
X118382990Y-95702380D01*
X118478228Y-95654761D01*
X118525847Y-95607142D01*
X118573466Y-95511904D01*
X118573466Y-95321428D01*
X118525847Y-95226190D01*
X118478228Y-95178571D01*
X118382990Y-95130952D01*
X121516876Y-102931980D02*
X121516876Y-103646266D01*
X121469257Y-103789123D01*
X121374019Y-103884361D01*
X121231161Y-103931980D01*
X121135923Y-103931980D01*
X122516876Y-103931980D02*
X121945447Y-103931980D01*
X122231161Y-103931980D02*
X122231161Y-102931980D01*
X122135923Y-103074838D01*
X122040685Y-103170076D01*
X121945447Y-103217695D01*
X123135923Y-102931980D02*
X123231161Y-102931980D01*
X123326400Y-102979600D01*
X123374019Y-103027219D01*
X123421638Y-103122457D01*
X123469257Y-103312933D01*
X123469257Y-103551028D01*
X123421638Y-103741504D01*
X123374019Y-103836742D01*
X123326400Y-103884361D01*
X123231161Y-103931980D01*
X123135923Y-103931980D01*
X123040685Y-103884361D01*
X122993066Y-103836742D01*
X122945447Y-103741504D01*
X122897828Y-103551028D01*
X122897828Y-103312933D01*
X122945447Y-103122457D01*
X122993066Y-103027219D01*
X123040685Y-102979600D01*
X123135923Y-102931980D01*
X99317276Y-102931980D02*
X99317276Y-103646266D01*
X99269657Y-103789123D01*
X99174419Y-103884361D01*
X99031561Y-103931980D01*
X98936323Y-103931980D01*
X100317276Y-103931980D02*
X99745847Y-103931980D01*
X100031561Y-103931980D02*
X100031561Y-102931980D01*
X99936323Y-103074838D01*
X99841085Y-103170076D01*
X99745847Y-103217695D01*
X100650609Y-102931980D02*
X101269657Y-102931980D01*
X100936323Y-103312933D01*
X101079180Y-103312933D01*
X101174419Y-103360552D01*
X101222038Y-103408171D01*
X101269657Y-103503409D01*
X101269657Y-103741504D01*
X101222038Y-103836742D01*
X101174419Y-103884361D01*
X101079180Y-103931980D01*
X100793466Y-103931980D01*
X100698228Y-103884361D01*
X100650609Y-103836742D01*
X101857276Y-102931980D02*
X101857276Y-103646266D01*
X101809657Y-103789123D01*
X101714419Y-103884361D01*
X101571561Y-103931980D01*
X101476323Y-103931980D01*
X102857276Y-103931980D02*
X102285847Y-103931980D01*
X102571561Y-103931980D02*
X102571561Y-102931980D01*
X102476323Y-103074838D01*
X102381085Y-103170076D01*
X102285847Y-103217695D01*
X103714419Y-103265314D02*
X103714419Y-103931980D01*
X103476323Y-102884361D02*
X103238228Y-103598647D01*
X103857276Y-103598647D01*
X104397276Y-102931980D02*
X104397276Y-103646266D01*
X104349657Y-103789123D01*
X104254419Y-103884361D01*
X104111561Y-103931980D01*
X104016323Y-103931980D01*
X105397276Y-103931980D02*
X104825847Y-103931980D01*
X105111561Y-103931980D02*
X105111561Y-102931980D01*
X105016323Y-103074838D01*
X104921085Y-103170076D01*
X104825847Y-103217695D01*
X106302038Y-102931980D02*
X105825847Y-102931980D01*
X105778228Y-103408171D01*
X105825847Y-103360552D01*
X105921085Y-103312933D01*
X106159180Y-103312933D01*
X106254419Y-103360552D01*
X106302038Y-103408171D01*
X106349657Y-103503409D01*
X106349657Y-103741504D01*
X106302038Y-103836742D01*
X106254419Y-103884361D01*
X106159180Y-103931980D01*
X105921085Y-103931980D01*
X105825847Y-103884361D01*
X105778228Y-103836742D01*
X106937276Y-102931980D02*
X106937276Y-103646266D01*
X106889657Y-103789123D01*
X106794419Y-103884361D01*
X106651561Y-103931980D01*
X106556323Y-103931980D01*
X107937276Y-103931980D02*
X107365847Y-103931980D01*
X107651561Y-103931980D02*
X107651561Y-102931980D01*
X107556323Y-103074838D01*
X107461085Y-103170076D01*
X107365847Y-103217695D01*
X108794419Y-102931980D02*
X108603942Y-102931980D01*
X108508704Y-102979600D01*
X108461085Y-103027219D01*
X108365847Y-103170076D01*
X108318228Y-103360552D01*
X108318228Y-103741504D01*
X108365847Y-103836742D01*
X108413466Y-103884361D01*
X108508704Y-103931980D01*
X108699180Y-103931980D01*
X108794419Y-103884361D01*
X108842038Y-103836742D01*
X108889657Y-103741504D01*
X108889657Y-103503409D01*
X108842038Y-103408171D01*
X108794419Y-103360552D01*
X108699180Y-103312933D01*
X108508704Y-103312933D01*
X108413466Y-103360552D01*
X108365847Y-103408171D01*
X108318228Y-103503409D01*
X109477276Y-102931980D02*
X109477276Y-103646266D01*
X109429657Y-103789123D01*
X109334419Y-103884361D01*
X109191561Y-103931980D01*
X109096323Y-103931980D01*
X110477276Y-103931980D02*
X109905847Y-103931980D01*
X110191561Y-103931980D02*
X110191561Y-102931980D01*
X110096323Y-103074838D01*
X110001085Y-103170076D01*
X109905847Y-103217695D01*
X110810609Y-102931980D02*
X111477276Y-102931980D01*
X111048704Y-103931980D01*
X112017276Y-102931980D02*
X112017276Y-103646266D01*
X111969657Y-103789123D01*
X111874419Y-103884361D01*
X111731561Y-103931980D01*
X111636323Y-103931980D01*
X113017276Y-103931980D02*
X112445847Y-103931980D01*
X112731561Y-103931980D02*
X112731561Y-102931980D01*
X112636323Y-103074838D01*
X112541085Y-103170076D01*
X112445847Y-103217695D01*
X113588704Y-103360552D02*
X113493466Y-103312933D01*
X113445847Y-103265314D01*
X113398228Y-103170076D01*
X113398228Y-103122457D01*
X113445847Y-103027219D01*
X113493466Y-102979600D01*
X113588704Y-102931980D01*
X113779180Y-102931980D01*
X113874419Y-102979600D01*
X113922038Y-103027219D01*
X113969657Y-103122457D01*
X113969657Y-103170076D01*
X113922038Y-103265314D01*
X113874419Y-103312933D01*
X113779180Y-103360552D01*
X113588704Y-103360552D01*
X113493466Y-103408171D01*
X113445847Y-103455790D01*
X113398228Y-103551028D01*
X113398228Y-103741504D01*
X113445847Y-103836742D01*
X113493466Y-103884361D01*
X113588704Y-103931980D01*
X113779180Y-103931980D01*
X113874419Y-103884361D01*
X113922038Y-103836742D01*
X113969657Y-103741504D01*
X113969657Y-103551028D01*
X113922038Y-103455790D01*
X113874419Y-103408171D01*
X113779180Y-103360552D01*
X114557276Y-102931980D02*
X114557276Y-103646266D01*
X114509657Y-103789123D01*
X114414419Y-103884361D01*
X114271561Y-103931980D01*
X114176323Y-103931980D01*
X115557276Y-103931980D02*
X114985847Y-103931980D01*
X115271561Y-103931980D02*
X115271561Y-102931980D01*
X115176323Y-103074838D01*
X115081085Y-103170076D01*
X114985847Y-103217695D01*
X116033466Y-103931980D02*
X116223942Y-103931980D01*
X116319180Y-103884361D01*
X116366800Y-103836742D01*
X116462038Y-103693885D01*
X116509657Y-103503409D01*
X116509657Y-103122457D01*
X116462038Y-103027219D01*
X116414419Y-102979600D01*
X116319180Y-102931980D01*
X116128704Y-102931980D01*
X116033466Y-102979600D01*
X115985847Y-103027219D01*
X115938228Y-103122457D01*
X115938228Y-103360552D01*
X115985847Y-103455790D01*
X116033466Y-103503409D01*
X116128704Y-103551028D01*
X116319180Y-103551028D01*
X116414419Y-103503409D01*
X116462038Y-103455790D01*
X116509657Y-103360552D01*
X117097276Y-102931980D02*
X117097276Y-103646266D01*
X117049657Y-103789123D01*
X116954419Y-103884361D01*
X116811561Y-103931980D01*
X116716323Y-103931980D01*
X117525847Y-103027219D02*
X117573466Y-102979600D01*
X117668704Y-102931980D01*
X117906800Y-102931980D01*
X118002038Y-102979600D01*
X118049657Y-103027219D01*
X118097276Y-103122457D01*
X118097276Y-103217695D01*
X118049657Y-103360552D01*
X117478228Y-103931980D01*
X118097276Y-103931980D01*
X118716323Y-102931980D02*
X118811561Y-102931980D01*
X118906800Y-102979600D01*
X118954419Y-103027219D01*
X119002038Y-103122457D01*
X119049657Y-103312933D01*
X119049657Y-103551028D01*
X119002038Y-103741504D01*
X118954419Y-103836742D01*
X118906800Y-103884361D01*
X118811561Y-103931980D01*
X118716323Y-103931980D01*
X118621085Y-103884361D01*
X118573466Y-103836742D01*
X118525847Y-103741504D01*
X118478228Y-103551028D01*
X118478228Y-103312933D01*
X118525847Y-103122457D01*
X118573466Y-103027219D01*
X118621085Y-102979600D01*
X118716323Y-102931980D01*
X121516876Y-89622380D02*
X121516876Y-90336666D01*
X121469257Y-90479523D01*
X121374019Y-90574761D01*
X121231161Y-90622380D01*
X121135923Y-90622380D01*
X122516876Y-90622380D02*
X121945447Y-90622380D01*
X122231161Y-90622380D02*
X122231161Y-89622380D01*
X122135923Y-89765238D01*
X122040685Y-89860476D01*
X121945447Y-89908095D01*
X123469257Y-90622380D02*
X122897828Y-90622380D01*
X123183542Y-90622380D02*
X123183542Y-89622380D01*
X123088304Y-89765238D01*
X122993066Y-89860476D01*
X122897828Y-89908095D01*
X121516876Y-94753180D02*
X121516876Y-95467466D01*
X121469257Y-95610323D01*
X121374019Y-95705561D01*
X121231161Y-95753180D01*
X121135923Y-95753180D01*
X121945447Y-94848419D02*
X121993066Y-94800800D01*
X122088304Y-94753180D01*
X122326400Y-94753180D01*
X122421638Y-94800800D01*
X122469257Y-94848419D01*
X122516876Y-94943657D01*
X122516876Y-95038895D01*
X122469257Y-95181752D01*
X121897828Y-95753180D01*
X122516876Y-95753180D01*
X123469257Y-95753180D02*
X122897828Y-95753180D01*
X123183542Y-95753180D02*
X123183542Y-94753180D01*
X123088304Y-94896038D01*
X122993066Y-94991276D01*
X122897828Y-95038895D01*
M02*
