G04 #@! TF.GenerationSoftware,KiCad,Pcbnew,5.1.1-8be2ce7~80~ubuntu16.04.1*
G04 #@! TF.CreationDate,2019-04-29T10:17:37+02:00*
G04 #@! TF.ProjectId,servomotors_ext_pwr_adaptor,73657276-6f6d-46f7-946f-72735f657874,rev?*
G04 #@! TF.SameCoordinates,Original*
G04 #@! TF.FileFunction,Copper,L1,Top*
G04 #@! TF.FilePolarity,Positive*
%FSLAX46Y46*%
G04 Gerber Fmt 4.6, Leading zero omitted, Abs format (unit mm)*
G04 Created by KiCad (PCBNEW 5.1.1-8be2ce7~80~ubuntu16.04.1) date 2019-04-29 10:17:37*
%MOMM*%
%LPD*%
G04 APERTURE LIST*
%ADD10O,1.700000X1.700000*%
%ADD11R,1.700000X1.700000*%
%ADD12C,0.254000*%
G04 APERTURE END LIST*
D10*
X100126800Y-92506800D03*
X100126800Y-89966800D03*
D11*
X100126800Y-87426800D03*
X102666800Y-87426800D03*
D10*
X102666800Y-89966800D03*
X102666800Y-92506800D03*
X105206800Y-92506800D03*
X105206800Y-89966800D03*
D11*
X105206800Y-87426800D03*
X107746800Y-87426800D03*
D10*
X107746800Y-89966800D03*
X107746800Y-92506800D03*
X110286800Y-92506800D03*
X110286800Y-89966800D03*
D11*
X110286800Y-87426800D03*
X112826800Y-87426800D03*
D10*
X112826800Y-89966800D03*
X112826800Y-92506800D03*
X115366800Y-92506800D03*
X115366800Y-89966800D03*
D11*
X115366800Y-87426800D03*
X117906800Y-87426800D03*
D10*
X117906800Y-89966800D03*
X117906800Y-92506800D03*
X117906800Y-98062800D03*
X115366800Y-98062800D03*
X112826800Y-98062800D03*
X110286800Y-98062800D03*
X107746800Y-98062800D03*
X105206800Y-98062800D03*
X102666800Y-98062800D03*
D11*
X100126800Y-98062800D03*
X122326400Y-111201200D03*
D10*
X122326400Y-108661200D03*
X122326400Y-106121200D03*
D11*
X100126800Y-100634800D03*
D10*
X102666800Y-100634800D03*
X105206800Y-100634800D03*
X107746800Y-100634800D03*
X110286800Y-100634800D03*
X112826800Y-100634800D03*
X115366800Y-100634800D03*
X117906800Y-100634800D03*
X100126800Y-106190800D03*
X100126800Y-108730800D03*
D11*
X100126800Y-111270800D03*
X102666800Y-111252000D03*
D10*
X102666800Y-108712000D03*
X102666800Y-106172000D03*
D11*
X105206800Y-111252000D03*
D10*
X105206800Y-108712000D03*
X105206800Y-106172000D03*
X107746800Y-106172000D03*
X107746800Y-108712000D03*
D11*
X107746800Y-111252000D03*
X110286800Y-111252000D03*
D10*
X110286800Y-108712000D03*
X110286800Y-106172000D03*
X112826800Y-106172000D03*
X112826800Y-108712000D03*
D11*
X112826800Y-111252000D03*
X115366800Y-111252000D03*
D10*
X115366800Y-108712000D03*
X115366800Y-106172000D03*
X117906800Y-106172000D03*
X117906800Y-108712000D03*
D11*
X117906800Y-111252000D03*
X122326400Y-87426800D03*
X122326400Y-100584000D03*
D10*
X122326400Y-98044000D03*
D12*
G36*
X123913976Y-85217551D02*
G01*
X123823600Y-85532728D01*
X123796164Y-85859456D01*
X123832712Y-86185292D01*
X123931853Y-86497822D01*
X124089809Y-86785145D01*
X124300566Y-87036314D01*
X124556094Y-87241764D01*
X124846661Y-87393669D01*
X125161199Y-87486243D01*
X125487729Y-87515959D01*
X125813811Y-87481686D01*
X126127026Y-87384730D01*
X126340001Y-87269575D01*
X126340000Y-111339249D01*
X126083529Y-111209696D01*
X125767729Y-111121523D01*
X125440817Y-111096368D01*
X125115245Y-111135191D01*
X124803414Y-111236511D01*
X124517201Y-111396469D01*
X124267509Y-111608974D01*
X124063848Y-111865930D01*
X123913976Y-112157551D01*
X123823600Y-112472728D01*
X123796164Y-112799456D01*
X123832712Y-113125292D01*
X123931853Y-113437822D01*
X124043000Y-113640000D01*
X98462240Y-113640000D01*
X98581237Y-113416198D01*
X98676005Y-113102314D01*
X98708000Y-112776000D01*
X98707345Y-112729092D01*
X98666251Y-112403799D01*
X98562756Y-112092682D01*
X98400803Y-111807594D01*
X98186561Y-111559391D01*
X97928189Y-111357529D01*
X97635529Y-111209696D01*
X97319729Y-111121523D01*
X96992817Y-111096368D01*
X96667245Y-111135191D01*
X96355414Y-111236511D01*
X96164000Y-111343488D01*
X96164000Y-110420800D01*
X98638728Y-110420800D01*
X98638728Y-112120800D01*
X98650988Y-112245282D01*
X98687298Y-112364980D01*
X98746263Y-112475294D01*
X98825615Y-112571985D01*
X98922306Y-112651337D01*
X99032620Y-112710302D01*
X99152318Y-112746612D01*
X99276800Y-112758872D01*
X100976800Y-112758872D01*
X101101282Y-112746612D01*
X101220980Y-112710302D01*
X101331294Y-112651337D01*
X101408254Y-112588178D01*
X101462306Y-112632537D01*
X101572620Y-112691502D01*
X101692318Y-112727812D01*
X101816800Y-112740072D01*
X103516800Y-112740072D01*
X103641282Y-112727812D01*
X103760980Y-112691502D01*
X103871294Y-112632537D01*
X103936800Y-112578778D01*
X104002306Y-112632537D01*
X104112620Y-112691502D01*
X104232318Y-112727812D01*
X104356800Y-112740072D01*
X106056800Y-112740072D01*
X106181282Y-112727812D01*
X106300980Y-112691502D01*
X106411294Y-112632537D01*
X106476800Y-112578778D01*
X106542306Y-112632537D01*
X106652620Y-112691502D01*
X106772318Y-112727812D01*
X106896800Y-112740072D01*
X108596800Y-112740072D01*
X108721282Y-112727812D01*
X108840980Y-112691502D01*
X108951294Y-112632537D01*
X109016800Y-112578778D01*
X109082306Y-112632537D01*
X109192620Y-112691502D01*
X109312318Y-112727812D01*
X109436800Y-112740072D01*
X111136800Y-112740072D01*
X111261282Y-112727812D01*
X111380980Y-112691502D01*
X111491294Y-112632537D01*
X111556800Y-112578778D01*
X111622306Y-112632537D01*
X111732620Y-112691502D01*
X111852318Y-112727812D01*
X111976800Y-112740072D01*
X113676800Y-112740072D01*
X113801282Y-112727812D01*
X113920980Y-112691502D01*
X114031294Y-112632537D01*
X114096800Y-112578778D01*
X114162306Y-112632537D01*
X114272620Y-112691502D01*
X114392318Y-112727812D01*
X114516800Y-112740072D01*
X116216800Y-112740072D01*
X116341282Y-112727812D01*
X116460980Y-112691502D01*
X116571294Y-112632537D01*
X116636800Y-112578778D01*
X116702306Y-112632537D01*
X116812620Y-112691502D01*
X116932318Y-112727812D01*
X117056800Y-112740072D01*
X118756800Y-112740072D01*
X118881282Y-112727812D01*
X119000980Y-112691502D01*
X119111294Y-112632537D01*
X119207985Y-112553185D01*
X119287337Y-112456494D01*
X119346302Y-112346180D01*
X119382612Y-112226482D01*
X119394872Y-112102000D01*
X119394872Y-110402000D01*
X119382612Y-110277518D01*
X119346302Y-110157820D01*
X119287337Y-110047506D01*
X119207985Y-109950815D01*
X119111294Y-109871463D01*
X119000980Y-109812498D01*
X118920334Y-109788034D01*
X119004388Y-109712269D01*
X119178441Y-109478920D01*
X119303625Y-109216099D01*
X119348276Y-109068890D01*
X119226955Y-108839000D01*
X118033800Y-108839000D01*
X118033800Y-108859000D01*
X117779800Y-108859000D01*
X117779800Y-108839000D01*
X115493800Y-108839000D01*
X115493800Y-108859000D01*
X115239800Y-108859000D01*
X115239800Y-108839000D01*
X112953800Y-108839000D01*
X112953800Y-108859000D01*
X112699800Y-108859000D01*
X112699800Y-108839000D01*
X110413800Y-108839000D01*
X110413800Y-108859000D01*
X110159800Y-108859000D01*
X110159800Y-108839000D01*
X107873800Y-108839000D01*
X107873800Y-108859000D01*
X107619800Y-108859000D01*
X107619800Y-108839000D01*
X105333800Y-108839000D01*
X105333800Y-108859000D01*
X105079800Y-108859000D01*
X105079800Y-108839000D01*
X102793800Y-108839000D01*
X102793800Y-108859000D01*
X102539800Y-108859000D01*
X102539800Y-108839000D01*
X101346645Y-108839000D01*
X101336724Y-108857800D01*
X100253800Y-108857800D01*
X100253800Y-108877800D01*
X99999800Y-108877800D01*
X99999800Y-108857800D01*
X98806645Y-108857800D01*
X98685324Y-109087690D01*
X98729975Y-109234899D01*
X98855159Y-109497720D01*
X99029212Y-109731069D01*
X99113266Y-109806834D01*
X99032620Y-109831298D01*
X98922306Y-109890263D01*
X98825615Y-109969615D01*
X98746263Y-110066306D01*
X98687298Y-110176620D01*
X98650988Y-110296318D01*
X98638728Y-110420800D01*
X96164000Y-110420800D01*
X96164000Y-106190800D01*
X98634615Y-106190800D01*
X98663287Y-106481911D01*
X98748201Y-106761834D01*
X98886094Y-107019814D01*
X99071666Y-107245934D01*
X99297786Y-107431506D01*
X99362323Y-107466001D01*
X99245445Y-107535622D01*
X99029212Y-107730531D01*
X98855159Y-107963880D01*
X98729975Y-108226701D01*
X98685324Y-108373910D01*
X98806645Y-108603800D01*
X99999800Y-108603800D01*
X99999800Y-108583800D01*
X100253800Y-108583800D01*
X100253800Y-108603800D01*
X101446955Y-108603800D01*
X101456876Y-108585000D01*
X102539800Y-108585000D01*
X102539800Y-108565000D01*
X102793800Y-108565000D01*
X102793800Y-108585000D01*
X105079800Y-108585000D01*
X105079800Y-108565000D01*
X105333800Y-108565000D01*
X105333800Y-108585000D01*
X107619800Y-108585000D01*
X107619800Y-108565000D01*
X107873800Y-108565000D01*
X107873800Y-108585000D01*
X110159800Y-108585000D01*
X110159800Y-108565000D01*
X110413800Y-108565000D01*
X110413800Y-108585000D01*
X112699800Y-108585000D01*
X112699800Y-108565000D01*
X112953800Y-108565000D01*
X112953800Y-108585000D01*
X115239800Y-108585000D01*
X115239800Y-108565000D01*
X115493800Y-108565000D01*
X115493800Y-108585000D01*
X117779800Y-108585000D01*
X117779800Y-108565000D01*
X118033800Y-108565000D01*
X118033800Y-108585000D01*
X119226955Y-108585000D01*
X119348276Y-108355110D01*
X119303625Y-108207901D01*
X119178441Y-107945080D01*
X119004388Y-107711731D01*
X118788155Y-107516822D01*
X118671277Y-107447201D01*
X118735814Y-107412706D01*
X118961934Y-107227134D01*
X119147506Y-107001014D01*
X119285399Y-106743034D01*
X119370313Y-106463111D01*
X119398985Y-106172000D01*
X119393982Y-106121200D01*
X120834215Y-106121200D01*
X120862887Y-106412311D01*
X120947801Y-106692234D01*
X121085694Y-106950214D01*
X121271266Y-107176334D01*
X121497386Y-107361906D01*
X121552191Y-107391200D01*
X121497386Y-107420494D01*
X121271266Y-107606066D01*
X121085694Y-107832186D01*
X120947801Y-108090166D01*
X120862887Y-108370089D01*
X120834215Y-108661200D01*
X120862887Y-108952311D01*
X120947801Y-109232234D01*
X121085694Y-109490214D01*
X121271266Y-109716334D01*
X121301087Y-109740807D01*
X121232220Y-109761698D01*
X121121906Y-109820663D01*
X121025215Y-109900015D01*
X120945863Y-109996706D01*
X120886898Y-110107020D01*
X120850588Y-110226718D01*
X120838328Y-110351200D01*
X120838328Y-112051200D01*
X120850588Y-112175682D01*
X120886898Y-112295380D01*
X120945863Y-112405694D01*
X121025215Y-112502385D01*
X121121906Y-112581737D01*
X121232220Y-112640702D01*
X121351918Y-112677012D01*
X121476400Y-112689272D01*
X123176400Y-112689272D01*
X123300882Y-112677012D01*
X123420580Y-112640702D01*
X123530894Y-112581737D01*
X123627585Y-112502385D01*
X123706937Y-112405694D01*
X123765902Y-112295380D01*
X123802212Y-112175682D01*
X123814472Y-112051200D01*
X123814472Y-110351200D01*
X123802212Y-110226718D01*
X123765902Y-110107020D01*
X123706937Y-109996706D01*
X123627585Y-109900015D01*
X123530894Y-109820663D01*
X123420580Y-109761698D01*
X123351713Y-109740807D01*
X123381534Y-109716334D01*
X123567106Y-109490214D01*
X123704999Y-109232234D01*
X123789913Y-108952311D01*
X123818585Y-108661200D01*
X123789913Y-108370089D01*
X123704999Y-108090166D01*
X123567106Y-107832186D01*
X123381534Y-107606066D01*
X123155414Y-107420494D01*
X123100609Y-107391200D01*
X123155414Y-107361906D01*
X123381534Y-107176334D01*
X123567106Y-106950214D01*
X123704999Y-106692234D01*
X123789913Y-106412311D01*
X123818585Y-106121200D01*
X123789913Y-105830089D01*
X123704999Y-105550166D01*
X123567106Y-105292186D01*
X123381534Y-105066066D01*
X123155414Y-104880494D01*
X122897434Y-104742601D01*
X122617511Y-104657687D01*
X122399350Y-104636200D01*
X122253450Y-104636200D01*
X122035289Y-104657687D01*
X121755366Y-104742601D01*
X121497386Y-104880494D01*
X121271266Y-105066066D01*
X121085694Y-105292186D01*
X120947801Y-105550166D01*
X120862887Y-105830089D01*
X120834215Y-106121200D01*
X119393982Y-106121200D01*
X119370313Y-105880889D01*
X119285399Y-105600966D01*
X119147506Y-105342986D01*
X118961934Y-105116866D01*
X118735814Y-104931294D01*
X118477834Y-104793401D01*
X118197911Y-104708487D01*
X117979750Y-104687000D01*
X117833850Y-104687000D01*
X117615689Y-104708487D01*
X117335766Y-104793401D01*
X117077786Y-104931294D01*
X116851666Y-105116866D01*
X116666094Y-105342986D01*
X116636800Y-105397791D01*
X116607506Y-105342986D01*
X116421934Y-105116866D01*
X116195814Y-104931294D01*
X115937834Y-104793401D01*
X115657911Y-104708487D01*
X115439750Y-104687000D01*
X115293850Y-104687000D01*
X115075689Y-104708487D01*
X114795766Y-104793401D01*
X114537786Y-104931294D01*
X114311666Y-105116866D01*
X114126094Y-105342986D01*
X114096800Y-105397791D01*
X114067506Y-105342986D01*
X113881934Y-105116866D01*
X113655814Y-104931294D01*
X113397834Y-104793401D01*
X113117911Y-104708487D01*
X112899750Y-104687000D01*
X112753850Y-104687000D01*
X112535689Y-104708487D01*
X112255766Y-104793401D01*
X111997786Y-104931294D01*
X111771666Y-105116866D01*
X111586094Y-105342986D01*
X111556800Y-105397791D01*
X111527506Y-105342986D01*
X111341934Y-105116866D01*
X111115814Y-104931294D01*
X110857834Y-104793401D01*
X110577911Y-104708487D01*
X110359750Y-104687000D01*
X110213850Y-104687000D01*
X109995689Y-104708487D01*
X109715766Y-104793401D01*
X109457786Y-104931294D01*
X109231666Y-105116866D01*
X109046094Y-105342986D01*
X109016800Y-105397791D01*
X108987506Y-105342986D01*
X108801934Y-105116866D01*
X108575814Y-104931294D01*
X108317834Y-104793401D01*
X108037911Y-104708487D01*
X107819750Y-104687000D01*
X107673850Y-104687000D01*
X107455689Y-104708487D01*
X107175766Y-104793401D01*
X106917786Y-104931294D01*
X106691666Y-105116866D01*
X106506094Y-105342986D01*
X106476800Y-105397791D01*
X106447506Y-105342986D01*
X106261934Y-105116866D01*
X106035814Y-104931294D01*
X105777834Y-104793401D01*
X105497911Y-104708487D01*
X105279750Y-104687000D01*
X105133850Y-104687000D01*
X104915689Y-104708487D01*
X104635766Y-104793401D01*
X104377786Y-104931294D01*
X104151666Y-105116866D01*
X103966094Y-105342986D01*
X103936800Y-105397791D01*
X103907506Y-105342986D01*
X103721934Y-105116866D01*
X103495814Y-104931294D01*
X103237834Y-104793401D01*
X102957911Y-104708487D01*
X102739750Y-104687000D01*
X102593850Y-104687000D01*
X102375689Y-104708487D01*
X102095766Y-104793401D01*
X101837786Y-104931294D01*
X101611666Y-105116866D01*
X101426094Y-105342986D01*
X101391776Y-105407191D01*
X101367506Y-105361786D01*
X101181934Y-105135666D01*
X100955814Y-104950094D01*
X100697834Y-104812201D01*
X100417911Y-104727287D01*
X100199750Y-104705800D01*
X100053850Y-104705800D01*
X99835689Y-104727287D01*
X99555766Y-104812201D01*
X99297786Y-104950094D01*
X99071666Y-105135666D01*
X98886094Y-105361786D01*
X98748201Y-105619766D01*
X98663287Y-105899689D01*
X98634615Y-106190800D01*
X96164000Y-106190800D01*
X96164000Y-97212800D01*
X98638728Y-97212800D01*
X98638728Y-98912800D01*
X98650988Y-99037282D01*
X98687298Y-99156980D01*
X98746263Y-99267294D01*
X98813153Y-99348800D01*
X98746263Y-99430306D01*
X98687298Y-99540620D01*
X98650988Y-99660318D01*
X98638728Y-99784800D01*
X98638728Y-101484800D01*
X98650988Y-101609282D01*
X98687298Y-101728980D01*
X98746263Y-101839294D01*
X98825615Y-101935985D01*
X98922306Y-102015337D01*
X99032620Y-102074302D01*
X99152318Y-102110612D01*
X99276800Y-102122872D01*
X100976800Y-102122872D01*
X101101282Y-102110612D01*
X101220980Y-102074302D01*
X101331294Y-102015337D01*
X101427985Y-101935985D01*
X101507337Y-101839294D01*
X101566302Y-101728980D01*
X101587193Y-101660113D01*
X101611666Y-101689934D01*
X101837786Y-101875506D01*
X102095766Y-102013399D01*
X102375689Y-102098313D01*
X102593850Y-102119800D01*
X102739750Y-102119800D01*
X102957911Y-102098313D01*
X103237834Y-102013399D01*
X103495814Y-101875506D01*
X103721934Y-101689934D01*
X103907506Y-101463814D01*
X103936800Y-101409009D01*
X103966094Y-101463814D01*
X104151666Y-101689934D01*
X104377786Y-101875506D01*
X104635766Y-102013399D01*
X104915689Y-102098313D01*
X105133850Y-102119800D01*
X105279750Y-102119800D01*
X105497911Y-102098313D01*
X105777834Y-102013399D01*
X106035814Y-101875506D01*
X106261934Y-101689934D01*
X106447506Y-101463814D01*
X106476800Y-101409009D01*
X106506094Y-101463814D01*
X106691666Y-101689934D01*
X106917786Y-101875506D01*
X107175766Y-102013399D01*
X107455689Y-102098313D01*
X107673850Y-102119800D01*
X107819750Y-102119800D01*
X108037911Y-102098313D01*
X108317834Y-102013399D01*
X108575814Y-101875506D01*
X108801934Y-101689934D01*
X108987506Y-101463814D01*
X109016800Y-101409009D01*
X109046094Y-101463814D01*
X109231666Y-101689934D01*
X109457786Y-101875506D01*
X109715766Y-102013399D01*
X109995689Y-102098313D01*
X110213850Y-102119800D01*
X110359750Y-102119800D01*
X110577911Y-102098313D01*
X110857834Y-102013399D01*
X111115814Y-101875506D01*
X111341934Y-101689934D01*
X111527506Y-101463814D01*
X111556800Y-101409009D01*
X111586094Y-101463814D01*
X111771666Y-101689934D01*
X111997786Y-101875506D01*
X112255766Y-102013399D01*
X112535689Y-102098313D01*
X112753850Y-102119800D01*
X112899750Y-102119800D01*
X113117911Y-102098313D01*
X113397834Y-102013399D01*
X113655814Y-101875506D01*
X113881934Y-101689934D01*
X114067506Y-101463814D01*
X114096800Y-101409009D01*
X114126094Y-101463814D01*
X114311666Y-101689934D01*
X114537786Y-101875506D01*
X114795766Y-102013399D01*
X115075689Y-102098313D01*
X115293850Y-102119800D01*
X115439750Y-102119800D01*
X115657911Y-102098313D01*
X115937834Y-102013399D01*
X116195814Y-101875506D01*
X116421934Y-101689934D01*
X116607506Y-101463814D01*
X116636800Y-101409009D01*
X116666094Y-101463814D01*
X116851666Y-101689934D01*
X117077786Y-101875506D01*
X117335766Y-102013399D01*
X117615689Y-102098313D01*
X117833850Y-102119800D01*
X117979750Y-102119800D01*
X118197911Y-102098313D01*
X118477834Y-102013399D01*
X118735814Y-101875506D01*
X118961934Y-101689934D01*
X119147506Y-101463814D01*
X119285399Y-101205834D01*
X119370313Y-100925911D01*
X119398985Y-100634800D01*
X119370313Y-100343689D01*
X119285399Y-100063766D01*
X119147506Y-99805786D01*
X119088593Y-99734000D01*
X120838328Y-99734000D01*
X120838328Y-101434000D01*
X120850588Y-101558482D01*
X120886898Y-101678180D01*
X120945863Y-101788494D01*
X121025215Y-101885185D01*
X121121906Y-101964537D01*
X121232220Y-102023502D01*
X121351918Y-102059812D01*
X121476400Y-102072072D01*
X123176400Y-102072072D01*
X123300882Y-102059812D01*
X123420580Y-102023502D01*
X123530894Y-101964537D01*
X123627585Y-101885185D01*
X123706937Y-101788494D01*
X123765902Y-101678180D01*
X123802212Y-101558482D01*
X123814472Y-101434000D01*
X123814472Y-99734000D01*
X123802212Y-99609518D01*
X123765902Y-99489820D01*
X123706937Y-99379506D01*
X123627585Y-99282815D01*
X123530894Y-99203463D01*
X123420580Y-99144498D01*
X123339934Y-99120034D01*
X123423988Y-99044269D01*
X123598041Y-98810920D01*
X123723225Y-98548099D01*
X123767876Y-98400890D01*
X123646555Y-98171000D01*
X122453400Y-98171000D01*
X122453400Y-98191000D01*
X122199400Y-98191000D01*
X122199400Y-98171000D01*
X121006245Y-98171000D01*
X120884924Y-98400890D01*
X120929575Y-98548099D01*
X121054759Y-98810920D01*
X121228812Y-99044269D01*
X121312866Y-99120034D01*
X121232220Y-99144498D01*
X121121906Y-99203463D01*
X121025215Y-99282815D01*
X120945863Y-99379506D01*
X120886898Y-99489820D01*
X120850588Y-99609518D01*
X120838328Y-99734000D01*
X119088593Y-99734000D01*
X118961934Y-99579666D01*
X118735814Y-99394094D01*
X118651075Y-99348800D01*
X118735814Y-99303506D01*
X118961934Y-99117934D01*
X119147506Y-98891814D01*
X119285399Y-98633834D01*
X119370313Y-98353911D01*
X119398985Y-98062800D01*
X119370313Y-97771689D01*
X119344657Y-97687110D01*
X120884924Y-97687110D01*
X121006245Y-97917000D01*
X122199400Y-97917000D01*
X122199400Y-96723186D01*
X122453400Y-96723186D01*
X122453400Y-97917000D01*
X123646555Y-97917000D01*
X123767876Y-97687110D01*
X123723225Y-97539901D01*
X123598041Y-97277080D01*
X123423988Y-97043731D01*
X123207755Y-96848822D01*
X122957652Y-96699843D01*
X122683291Y-96602519D01*
X122453400Y-96723186D01*
X122199400Y-96723186D01*
X121969509Y-96602519D01*
X121695148Y-96699843D01*
X121445045Y-96848822D01*
X121228812Y-97043731D01*
X121054759Y-97277080D01*
X120929575Y-97539901D01*
X120884924Y-97687110D01*
X119344657Y-97687110D01*
X119285399Y-97491766D01*
X119147506Y-97233786D01*
X118961934Y-97007666D01*
X118735814Y-96822094D01*
X118477834Y-96684201D01*
X118197911Y-96599287D01*
X117979750Y-96577800D01*
X117833850Y-96577800D01*
X117615689Y-96599287D01*
X117335766Y-96684201D01*
X117077786Y-96822094D01*
X116851666Y-97007666D01*
X116666094Y-97233786D01*
X116636800Y-97288591D01*
X116607506Y-97233786D01*
X116421934Y-97007666D01*
X116195814Y-96822094D01*
X115937834Y-96684201D01*
X115657911Y-96599287D01*
X115439750Y-96577800D01*
X115293850Y-96577800D01*
X115075689Y-96599287D01*
X114795766Y-96684201D01*
X114537786Y-96822094D01*
X114311666Y-97007666D01*
X114126094Y-97233786D01*
X114096800Y-97288591D01*
X114067506Y-97233786D01*
X113881934Y-97007666D01*
X113655814Y-96822094D01*
X113397834Y-96684201D01*
X113117911Y-96599287D01*
X112899750Y-96577800D01*
X112753850Y-96577800D01*
X112535689Y-96599287D01*
X112255766Y-96684201D01*
X111997786Y-96822094D01*
X111771666Y-97007666D01*
X111586094Y-97233786D01*
X111556800Y-97288591D01*
X111527506Y-97233786D01*
X111341934Y-97007666D01*
X111115814Y-96822094D01*
X110857834Y-96684201D01*
X110577911Y-96599287D01*
X110359750Y-96577800D01*
X110213850Y-96577800D01*
X109995689Y-96599287D01*
X109715766Y-96684201D01*
X109457786Y-96822094D01*
X109231666Y-97007666D01*
X109046094Y-97233786D01*
X109016800Y-97288591D01*
X108987506Y-97233786D01*
X108801934Y-97007666D01*
X108575814Y-96822094D01*
X108317834Y-96684201D01*
X108037911Y-96599287D01*
X107819750Y-96577800D01*
X107673850Y-96577800D01*
X107455689Y-96599287D01*
X107175766Y-96684201D01*
X106917786Y-96822094D01*
X106691666Y-97007666D01*
X106506094Y-97233786D01*
X106476800Y-97288591D01*
X106447506Y-97233786D01*
X106261934Y-97007666D01*
X106035814Y-96822094D01*
X105777834Y-96684201D01*
X105497911Y-96599287D01*
X105279750Y-96577800D01*
X105133850Y-96577800D01*
X104915689Y-96599287D01*
X104635766Y-96684201D01*
X104377786Y-96822094D01*
X104151666Y-97007666D01*
X103966094Y-97233786D01*
X103936800Y-97288591D01*
X103907506Y-97233786D01*
X103721934Y-97007666D01*
X103495814Y-96822094D01*
X103237834Y-96684201D01*
X102957911Y-96599287D01*
X102739750Y-96577800D01*
X102593850Y-96577800D01*
X102375689Y-96599287D01*
X102095766Y-96684201D01*
X101837786Y-96822094D01*
X101611666Y-97007666D01*
X101587193Y-97037487D01*
X101566302Y-96968620D01*
X101507337Y-96858306D01*
X101427985Y-96761615D01*
X101331294Y-96682263D01*
X101220980Y-96623298D01*
X101101282Y-96586988D01*
X100976800Y-96574728D01*
X99276800Y-96574728D01*
X99152318Y-96586988D01*
X99032620Y-96623298D01*
X98922306Y-96682263D01*
X98825615Y-96761615D01*
X98746263Y-96858306D01*
X98687298Y-96968620D01*
X98650988Y-97088318D01*
X98638728Y-97212800D01*
X96164000Y-97212800D01*
X96164000Y-92506800D01*
X98634615Y-92506800D01*
X98663287Y-92797911D01*
X98748201Y-93077834D01*
X98886094Y-93335814D01*
X99071666Y-93561934D01*
X99297786Y-93747506D01*
X99555766Y-93885399D01*
X99835689Y-93970313D01*
X100053850Y-93991800D01*
X100199750Y-93991800D01*
X100417911Y-93970313D01*
X100697834Y-93885399D01*
X100955814Y-93747506D01*
X101181934Y-93561934D01*
X101367506Y-93335814D01*
X101396800Y-93281009D01*
X101426094Y-93335814D01*
X101611666Y-93561934D01*
X101837786Y-93747506D01*
X102095766Y-93885399D01*
X102375689Y-93970313D01*
X102593850Y-93991800D01*
X102739750Y-93991800D01*
X102957911Y-93970313D01*
X103237834Y-93885399D01*
X103495814Y-93747506D01*
X103721934Y-93561934D01*
X103907506Y-93335814D01*
X103936800Y-93281009D01*
X103966094Y-93335814D01*
X104151666Y-93561934D01*
X104377786Y-93747506D01*
X104635766Y-93885399D01*
X104915689Y-93970313D01*
X105133850Y-93991800D01*
X105279750Y-93991800D01*
X105497911Y-93970313D01*
X105777834Y-93885399D01*
X106035814Y-93747506D01*
X106261934Y-93561934D01*
X106447506Y-93335814D01*
X106476800Y-93281009D01*
X106506094Y-93335814D01*
X106691666Y-93561934D01*
X106917786Y-93747506D01*
X107175766Y-93885399D01*
X107455689Y-93970313D01*
X107673850Y-93991800D01*
X107819750Y-93991800D01*
X108037911Y-93970313D01*
X108317834Y-93885399D01*
X108575814Y-93747506D01*
X108801934Y-93561934D01*
X108987506Y-93335814D01*
X109016800Y-93281009D01*
X109046094Y-93335814D01*
X109231666Y-93561934D01*
X109457786Y-93747506D01*
X109715766Y-93885399D01*
X109995689Y-93970313D01*
X110213850Y-93991800D01*
X110359750Y-93991800D01*
X110577911Y-93970313D01*
X110857834Y-93885399D01*
X111115814Y-93747506D01*
X111341934Y-93561934D01*
X111527506Y-93335814D01*
X111556800Y-93281009D01*
X111586094Y-93335814D01*
X111771666Y-93561934D01*
X111997786Y-93747506D01*
X112255766Y-93885399D01*
X112535689Y-93970313D01*
X112753850Y-93991800D01*
X112899750Y-93991800D01*
X113117911Y-93970313D01*
X113397834Y-93885399D01*
X113655814Y-93747506D01*
X113881934Y-93561934D01*
X114067506Y-93335814D01*
X114096800Y-93281009D01*
X114126094Y-93335814D01*
X114311666Y-93561934D01*
X114537786Y-93747506D01*
X114795766Y-93885399D01*
X115075689Y-93970313D01*
X115293850Y-93991800D01*
X115439750Y-93991800D01*
X115657911Y-93970313D01*
X115937834Y-93885399D01*
X116195814Y-93747506D01*
X116421934Y-93561934D01*
X116607506Y-93335814D01*
X116636800Y-93281009D01*
X116666094Y-93335814D01*
X116851666Y-93561934D01*
X117077786Y-93747506D01*
X117335766Y-93885399D01*
X117615689Y-93970313D01*
X117833850Y-93991800D01*
X117979750Y-93991800D01*
X118197911Y-93970313D01*
X118477834Y-93885399D01*
X118735814Y-93747506D01*
X118961934Y-93561934D01*
X119147506Y-93335814D01*
X119285399Y-93077834D01*
X119370313Y-92797911D01*
X119398985Y-92506800D01*
X119370313Y-92215689D01*
X119285399Y-91935766D01*
X119147506Y-91677786D01*
X118961934Y-91451666D01*
X118735814Y-91266094D01*
X118671277Y-91231599D01*
X118788155Y-91161978D01*
X119004388Y-90967069D01*
X119178441Y-90733720D01*
X119303625Y-90470899D01*
X119348276Y-90323690D01*
X119226955Y-90093800D01*
X118033800Y-90093800D01*
X118033800Y-90113800D01*
X117779800Y-90113800D01*
X117779800Y-90093800D01*
X115493800Y-90093800D01*
X115493800Y-90113800D01*
X115239800Y-90113800D01*
X115239800Y-90093800D01*
X112953800Y-90093800D01*
X112953800Y-90113800D01*
X112699800Y-90113800D01*
X112699800Y-90093800D01*
X110413800Y-90093800D01*
X110413800Y-90113800D01*
X110159800Y-90113800D01*
X110159800Y-90093800D01*
X107873800Y-90093800D01*
X107873800Y-90113800D01*
X107619800Y-90113800D01*
X107619800Y-90093800D01*
X105333800Y-90093800D01*
X105333800Y-90113800D01*
X105079800Y-90113800D01*
X105079800Y-90093800D01*
X102793800Y-90093800D01*
X102793800Y-90113800D01*
X102539800Y-90113800D01*
X102539800Y-90093800D01*
X100253800Y-90093800D01*
X100253800Y-90113800D01*
X99999800Y-90113800D01*
X99999800Y-90093800D01*
X98806645Y-90093800D01*
X98685324Y-90323690D01*
X98729975Y-90470899D01*
X98855159Y-90733720D01*
X99029212Y-90967069D01*
X99245445Y-91161978D01*
X99362323Y-91231599D01*
X99297786Y-91266094D01*
X99071666Y-91451666D01*
X98886094Y-91677786D01*
X98748201Y-91935766D01*
X98663287Y-92215689D01*
X98634615Y-92506800D01*
X96164000Y-92506800D01*
X96164000Y-87286991D01*
X96398661Y-87409669D01*
X96713199Y-87502243D01*
X97039729Y-87531959D01*
X97365811Y-87497686D01*
X97679026Y-87400730D01*
X97967444Y-87244783D01*
X98220079Y-87035785D01*
X98427308Y-86781698D01*
X98536253Y-86576800D01*
X98638728Y-86576800D01*
X98638728Y-88276800D01*
X98650988Y-88401282D01*
X98687298Y-88520980D01*
X98746263Y-88631294D01*
X98825615Y-88727985D01*
X98922306Y-88807337D01*
X99032620Y-88866302D01*
X99113266Y-88890766D01*
X99029212Y-88966531D01*
X98855159Y-89199880D01*
X98729975Y-89462701D01*
X98685324Y-89609910D01*
X98806645Y-89839800D01*
X99999800Y-89839800D01*
X99999800Y-89819800D01*
X100253800Y-89819800D01*
X100253800Y-89839800D01*
X102539800Y-89839800D01*
X102539800Y-89819800D01*
X102793800Y-89819800D01*
X102793800Y-89839800D01*
X105079800Y-89839800D01*
X105079800Y-89819800D01*
X105333800Y-89819800D01*
X105333800Y-89839800D01*
X107619800Y-89839800D01*
X107619800Y-89819800D01*
X107873800Y-89819800D01*
X107873800Y-89839800D01*
X110159800Y-89839800D01*
X110159800Y-89819800D01*
X110413800Y-89819800D01*
X110413800Y-89839800D01*
X112699800Y-89839800D01*
X112699800Y-89819800D01*
X112953800Y-89819800D01*
X112953800Y-89839800D01*
X115239800Y-89839800D01*
X115239800Y-89819800D01*
X115493800Y-89819800D01*
X115493800Y-89839800D01*
X117779800Y-89839800D01*
X117779800Y-89819800D01*
X118033800Y-89819800D01*
X118033800Y-89839800D01*
X119226955Y-89839800D01*
X119348276Y-89609910D01*
X119303625Y-89462701D01*
X119178441Y-89199880D01*
X119004388Y-88966531D01*
X118920334Y-88890766D01*
X119000980Y-88866302D01*
X119111294Y-88807337D01*
X119207985Y-88727985D01*
X119287337Y-88631294D01*
X119346302Y-88520980D01*
X119382612Y-88401282D01*
X119394872Y-88276800D01*
X119394872Y-86576800D01*
X120838328Y-86576800D01*
X120838328Y-88276800D01*
X120850588Y-88401282D01*
X120886898Y-88520980D01*
X120945863Y-88631294D01*
X121025215Y-88727985D01*
X121121906Y-88807337D01*
X121232220Y-88866302D01*
X121351918Y-88902612D01*
X121476400Y-88914872D01*
X123176400Y-88914872D01*
X123300882Y-88902612D01*
X123420580Y-88866302D01*
X123530894Y-88807337D01*
X123627585Y-88727985D01*
X123706937Y-88631294D01*
X123765902Y-88520980D01*
X123802212Y-88401282D01*
X123814472Y-88276800D01*
X123814472Y-86576800D01*
X123802212Y-86452318D01*
X123765902Y-86332620D01*
X123706937Y-86222306D01*
X123627585Y-86125615D01*
X123530894Y-86046263D01*
X123420580Y-85987298D01*
X123300882Y-85950988D01*
X123176400Y-85938728D01*
X121476400Y-85938728D01*
X121351918Y-85950988D01*
X121232220Y-85987298D01*
X121121906Y-86046263D01*
X121025215Y-86125615D01*
X120945863Y-86222306D01*
X120886898Y-86332620D01*
X120850588Y-86452318D01*
X120838328Y-86576800D01*
X119394872Y-86576800D01*
X119382612Y-86452318D01*
X119346302Y-86332620D01*
X119287337Y-86222306D01*
X119207985Y-86125615D01*
X119111294Y-86046263D01*
X119000980Y-85987298D01*
X118881282Y-85950988D01*
X118756800Y-85938728D01*
X117056800Y-85938728D01*
X116932318Y-85950988D01*
X116812620Y-85987298D01*
X116702306Y-86046263D01*
X116636800Y-86100022D01*
X116571294Y-86046263D01*
X116460980Y-85987298D01*
X116341282Y-85950988D01*
X116216800Y-85938728D01*
X114516800Y-85938728D01*
X114392318Y-85950988D01*
X114272620Y-85987298D01*
X114162306Y-86046263D01*
X114096800Y-86100022D01*
X114031294Y-86046263D01*
X113920980Y-85987298D01*
X113801282Y-85950988D01*
X113676800Y-85938728D01*
X111976800Y-85938728D01*
X111852318Y-85950988D01*
X111732620Y-85987298D01*
X111622306Y-86046263D01*
X111556800Y-86100022D01*
X111491294Y-86046263D01*
X111380980Y-85987298D01*
X111261282Y-85950988D01*
X111136800Y-85938728D01*
X109436800Y-85938728D01*
X109312318Y-85950988D01*
X109192620Y-85987298D01*
X109082306Y-86046263D01*
X109016800Y-86100022D01*
X108951294Y-86046263D01*
X108840980Y-85987298D01*
X108721282Y-85950988D01*
X108596800Y-85938728D01*
X106896800Y-85938728D01*
X106772318Y-85950988D01*
X106652620Y-85987298D01*
X106542306Y-86046263D01*
X106476800Y-86100022D01*
X106411294Y-86046263D01*
X106300980Y-85987298D01*
X106181282Y-85950988D01*
X106056800Y-85938728D01*
X104356800Y-85938728D01*
X104232318Y-85950988D01*
X104112620Y-85987298D01*
X104002306Y-86046263D01*
X103936800Y-86100022D01*
X103871294Y-86046263D01*
X103760980Y-85987298D01*
X103641282Y-85950988D01*
X103516800Y-85938728D01*
X101816800Y-85938728D01*
X101692318Y-85950988D01*
X101572620Y-85987298D01*
X101462306Y-86046263D01*
X101396800Y-86100022D01*
X101331294Y-86046263D01*
X101220980Y-85987298D01*
X101101282Y-85950988D01*
X100976800Y-85938728D01*
X99276800Y-85938728D01*
X99152318Y-85950988D01*
X99032620Y-85987298D01*
X98922306Y-86046263D01*
X98825615Y-86125615D01*
X98746263Y-86222306D01*
X98687298Y-86332620D01*
X98650988Y-86452318D01*
X98638728Y-86576800D01*
X98536253Y-86576800D01*
X98581237Y-86492198D01*
X98676005Y-86178314D01*
X98708000Y-85852000D01*
X98707345Y-85805092D01*
X98666251Y-85479799D01*
X98562756Y-85168682D01*
X98460114Y-84988000D01*
X124031949Y-84988000D01*
X123913976Y-85217551D01*
X123913976Y-85217551D01*
G37*
X123913976Y-85217551D02*
X123823600Y-85532728D01*
X123796164Y-85859456D01*
X123832712Y-86185292D01*
X123931853Y-86497822D01*
X124089809Y-86785145D01*
X124300566Y-87036314D01*
X124556094Y-87241764D01*
X124846661Y-87393669D01*
X125161199Y-87486243D01*
X125487729Y-87515959D01*
X125813811Y-87481686D01*
X126127026Y-87384730D01*
X126340001Y-87269575D01*
X126340000Y-111339249D01*
X126083529Y-111209696D01*
X125767729Y-111121523D01*
X125440817Y-111096368D01*
X125115245Y-111135191D01*
X124803414Y-111236511D01*
X124517201Y-111396469D01*
X124267509Y-111608974D01*
X124063848Y-111865930D01*
X123913976Y-112157551D01*
X123823600Y-112472728D01*
X123796164Y-112799456D01*
X123832712Y-113125292D01*
X123931853Y-113437822D01*
X124043000Y-113640000D01*
X98462240Y-113640000D01*
X98581237Y-113416198D01*
X98676005Y-113102314D01*
X98708000Y-112776000D01*
X98707345Y-112729092D01*
X98666251Y-112403799D01*
X98562756Y-112092682D01*
X98400803Y-111807594D01*
X98186561Y-111559391D01*
X97928189Y-111357529D01*
X97635529Y-111209696D01*
X97319729Y-111121523D01*
X96992817Y-111096368D01*
X96667245Y-111135191D01*
X96355414Y-111236511D01*
X96164000Y-111343488D01*
X96164000Y-110420800D01*
X98638728Y-110420800D01*
X98638728Y-112120800D01*
X98650988Y-112245282D01*
X98687298Y-112364980D01*
X98746263Y-112475294D01*
X98825615Y-112571985D01*
X98922306Y-112651337D01*
X99032620Y-112710302D01*
X99152318Y-112746612D01*
X99276800Y-112758872D01*
X100976800Y-112758872D01*
X101101282Y-112746612D01*
X101220980Y-112710302D01*
X101331294Y-112651337D01*
X101408254Y-112588178D01*
X101462306Y-112632537D01*
X101572620Y-112691502D01*
X101692318Y-112727812D01*
X101816800Y-112740072D01*
X103516800Y-112740072D01*
X103641282Y-112727812D01*
X103760980Y-112691502D01*
X103871294Y-112632537D01*
X103936800Y-112578778D01*
X104002306Y-112632537D01*
X104112620Y-112691502D01*
X104232318Y-112727812D01*
X104356800Y-112740072D01*
X106056800Y-112740072D01*
X106181282Y-112727812D01*
X106300980Y-112691502D01*
X106411294Y-112632537D01*
X106476800Y-112578778D01*
X106542306Y-112632537D01*
X106652620Y-112691502D01*
X106772318Y-112727812D01*
X106896800Y-112740072D01*
X108596800Y-112740072D01*
X108721282Y-112727812D01*
X108840980Y-112691502D01*
X108951294Y-112632537D01*
X109016800Y-112578778D01*
X109082306Y-112632537D01*
X109192620Y-112691502D01*
X109312318Y-112727812D01*
X109436800Y-112740072D01*
X111136800Y-112740072D01*
X111261282Y-112727812D01*
X111380980Y-112691502D01*
X111491294Y-112632537D01*
X111556800Y-112578778D01*
X111622306Y-112632537D01*
X111732620Y-112691502D01*
X111852318Y-112727812D01*
X111976800Y-112740072D01*
X113676800Y-112740072D01*
X113801282Y-112727812D01*
X113920980Y-112691502D01*
X114031294Y-112632537D01*
X114096800Y-112578778D01*
X114162306Y-112632537D01*
X114272620Y-112691502D01*
X114392318Y-112727812D01*
X114516800Y-112740072D01*
X116216800Y-112740072D01*
X116341282Y-112727812D01*
X116460980Y-112691502D01*
X116571294Y-112632537D01*
X116636800Y-112578778D01*
X116702306Y-112632537D01*
X116812620Y-112691502D01*
X116932318Y-112727812D01*
X117056800Y-112740072D01*
X118756800Y-112740072D01*
X118881282Y-112727812D01*
X119000980Y-112691502D01*
X119111294Y-112632537D01*
X119207985Y-112553185D01*
X119287337Y-112456494D01*
X119346302Y-112346180D01*
X119382612Y-112226482D01*
X119394872Y-112102000D01*
X119394872Y-110402000D01*
X119382612Y-110277518D01*
X119346302Y-110157820D01*
X119287337Y-110047506D01*
X119207985Y-109950815D01*
X119111294Y-109871463D01*
X119000980Y-109812498D01*
X118920334Y-109788034D01*
X119004388Y-109712269D01*
X119178441Y-109478920D01*
X119303625Y-109216099D01*
X119348276Y-109068890D01*
X119226955Y-108839000D01*
X118033800Y-108839000D01*
X118033800Y-108859000D01*
X117779800Y-108859000D01*
X117779800Y-108839000D01*
X115493800Y-108839000D01*
X115493800Y-108859000D01*
X115239800Y-108859000D01*
X115239800Y-108839000D01*
X112953800Y-108839000D01*
X112953800Y-108859000D01*
X112699800Y-108859000D01*
X112699800Y-108839000D01*
X110413800Y-108839000D01*
X110413800Y-108859000D01*
X110159800Y-108859000D01*
X110159800Y-108839000D01*
X107873800Y-108839000D01*
X107873800Y-108859000D01*
X107619800Y-108859000D01*
X107619800Y-108839000D01*
X105333800Y-108839000D01*
X105333800Y-108859000D01*
X105079800Y-108859000D01*
X105079800Y-108839000D01*
X102793800Y-108839000D01*
X102793800Y-108859000D01*
X102539800Y-108859000D01*
X102539800Y-108839000D01*
X101346645Y-108839000D01*
X101336724Y-108857800D01*
X100253800Y-108857800D01*
X100253800Y-108877800D01*
X99999800Y-108877800D01*
X99999800Y-108857800D01*
X98806645Y-108857800D01*
X98685324Y-109087690D01*
X98729975Y-109234899D01*
X98855159Y-109497720D01*
X99029212Y-109731069D01*
X99113266Y-109806834D01*
X99032620Y-109831298D01*
X98922306Y-109890263D01*
X98825615Y-109969615D01*
X98746263Y-110066306D01*
X98687298Y-110176620D01*
X98650988Y-110296318D01*
X98638728Y-110420800D01*
X96164000Y-110420800D01*
X96164000Y-106190800D01*
X98634615Y-106190800D01*
X98663287Y-106481911D01*
X98748201Y-106761834D01*
X98886094Y-107019814D01*
X99071666Y-107245934D01*
X99297786Y-107431506D01*
X99362323Y-107466001D01*
X99245445Y-107535622D01*
X99029212Y-107730531D01*
X98855159Y-107963880D01*
X98729975Y-108226701D01*
X98685324Y-108373910D01*
X98806645Y-108603800D01*
X99999800Y-108603800D01*
X99999800Y-108583800D01*
X100253800Y-108583800D01*
X100253800Y-108603800D01*
X101446955Y-108603800D01*
X101456876Y-108585000D01*
X102539800Y-108585000D01*
X102539800Y-108565000D01*
X102793800Y-108565000D01*
X102793800Y-108585000D01*
X105079800Y-108585000D01*
X105079800Y-108565000D01*
X105333800Y-108565000D01*
X105333800Y-108585000D01*
X107619800Y-108585000D01*
X107619800Y-108565000D01*
X107873800Y-108565000D01*
X107873800Y-108585000D01*
X110159800Y-108585000D01*
X110159800Y-108565000D01*
X110413800Y-108565000D01*
X110413800Y-108585000D01*
X112699800Y-108585000D01*
X112699800Y-108565000D01*
X112953800Y-108565000D01*
X112953800Y-108585000D01*
X115239800Y-108585000D01*
X115239800Y-108565000D01*
X115493800Y-108565000D01*
X115493800Y-108585000D01*
X117779800Y-108585000D01*
X117779800Y-108565000D01*
X118033800Y-108565000D01*
X118033800Y-108585000D01*
X119226955Y-108585000D01*
X119348276Y-108355110D01*
X119303625Y-108207901D01*
X119178441Y-107945080D01*
X119004388Y-107711731D01*
X118788155Y-107516822D01*
X118671277Y-107447201D01*
X118735814Y-107412706D01*
X118961934Y-107227134D01*
X119147506Y-107001014D01*
X119285399Y-106743034D01*
X119370313Y-106463111D01*
X119398985Y-106172000D01*
X119393982Y-106121200D01*
X120834215Y-106121200D01*
X120862887Y-106412311D01*
X120947801Y-106692234D01*
X121085694Y-106950214D01*
X121271266Y-107176334D01*
X121497386Y-107361906D01*
X121552191Y-107391200D01*
X121497386Y-107420494D01*
X121271266Y-107606066D01*
X121085694Y-107832186D01*
X120947801Y-108090166D01*
X120862887Y-108370089D01*
X120834215Y-108661200D01*
X120862887Y-108952311D01*
X120947801Y-109232234D01*
X121085694Y-109490214D01*
X121271266Y-109716334D01*
X121301087Y-109740807D01*
X121232220Y-109761698D01*
X121121906Y-109820663D01*
X121025215Y-109900015D01*
X120945863Y-109996706D01*
X120886898Y-110107020D01*
X120850588Y-110226718D01*
X120838328Y-110351200D01*
X120838328Y-112051200D01*
X120850588Y-112175682D01*
X120886898Y-112295380D01*
X120945863Y-112405694D01*
X121025215Y-112502385D01*
X121121906Y-112581737D01*
X121232220Y-112640702D01*
X121351918Y-112677012D01*
X121476400Y-112689272D01*
X123176400Y-112689272D01*
X123300882Y-112677012D01*
X123420580Y-112640702D01*
X123530894Y-112581737D01*
X123627585Y-112502385D01*
X123706937Y-112405694D01*
X123765902Y-112295380D01*
X123802212Y-112175682D01*
X123814472Y-112051200D01*
X123814472Y-110351200D01*
X123802212Y-110226718D01*
X123765902Y-110107020D01*
X123706937Y-109996706D01*
X123627585Y-109900015D01*
X123530894Y-109820663D01*
X123420580Y-109761698D01*
X123351713Y-109740807D01*
X123381534Y-109716334D01*
X123567106Y-109490214D01*
X123704999Y-109232234D01*
X123789913Y-108952311D01*
X123818585Y-108661200D01*
X123789913Y-108370089D01*
X123704999Y-108090166D01*
X123567106Y-107832186D01*
X123381534Y-107606066D01*
X123155414Y-107420494D01*
X123100609Y-107391200D01*
X123155414Y-107361906D01*
X123381534Y-107176334D01*
X123567106Y-106950214D01*
X123704999Y-106692234D01*
X123789913Y-106412311D01*
X123818585Y-106121200D01*
X123789913Y-105830089D01*
X123704999Y-105550166D01*
X123567106Y-105292186D01*
X123381534Y-105066066D01*
X123155414Y-104880494D01*
X122897434Y-104742601D01*
X122617511Y-104657687D01*
X122399350Y-104636200D01*
X122253450Y-104636200D01*
X122035289Y-104657687D01*
X121755366Y-104742601D01*
X121497386Y-104880494D01*
X121271266Y-105066066D01*
X121085694Y-105292186D01*
X120947801Y-105550166D01*
X120862887Y-105830089D01*
X120834215Y-106121200D01*
X119393982Y-106121200D01*
X119370313Y-105880889D01*
X119285399Y-105600966D01*
X119147506Y-105342986D01*
X118961934Y-105116866D01*
X118735814Y-104931294D01*
X118477834Y-104793401D01*
X118197911Y-104708487D01*
X117979750Y-104687000D01*
X117833850Y-104687000D01*
X117615689Y-104708487D01*
X117335766Y-104793401D01*
X117077786Y-104931294D01*
X116851666Y-105116866D01*
X116666094Y-105342986D01*
X116636800Y-105397791D01*
X116607506Y-105342986D01*
X116421934Y-105116866D01*
X116195814Y-104931294D01*
X115937834Y-104793401D01*
X115657911Y-104708487D01*
X115439750Y-104687000D01*
X115293850Y-104687000D01*
X115075689Y-104708487D01*
X114795766Y-104793401D01*
X114537786Y-104931294D01*
X114311666Y-105116866D01*
X114126094Y-105342986D01*
X114096800Y-105397791D01*
X114067506Y-105342986D01*
X113881934Y-105116866D01*
X113655814Y-104931294D01*
X113397834Y-104793401D01*
X113117911Y-104708487D01*
X112899750Y-104687000D01*
X112753850Y-104687000D01*
X112535689Y-104708487D01*
X112255766Y-104793401D01*
X111997786Y-104931294D01*
X111771666Y-105116866D01*
X111586094Y-105342986D01*
X111556800Y-105397791D01*
X111527506Y-105342986D01*
X111341934Y-105116866D01*
X111115814Y-104931294D01*
X110857834Y-104793401D01*
X110577911Y-104708487D01*
X110359750Y-104687000D01*
X110213850Y-104687000D01*
X109995689Y-104708487D01*
X109715766Y-104793401D01*
X109457786Y-104931294D01*
X109231666Y-105116866D01*
X109046094Y-105342986D01*
X109016800Y-105397791D01*
X108987506Y-105342986D01*
X108801934Y-105116866D01*
X108575814Y-104931294D01*
X108317834Y-104793401D01*
X108037911Y-104708487D01*
X107819750Y-104687000D01*
X107673850Y-104687000D01*
X107455689Y-104708487D01*
X107175766Y-104793401D01*
X106917786Y-104931294D01*
X106691666Y-105116866D01*
X106506094Y-105342986D01*
X106476800Y-105397791D01*
X106447506Y-105342986D01*
X106261934Y-105116866D01*
X106035814Y-104931294D01*
X105777834Y-104793401D01*
X105497911Y-104708487D01*
X105279750Y-104687000D01*
X105133850Y-104687000D01*
X104915689Y-104708487D01*
X104635766Y-104793401D01*
X104377786Y-104931294D01*
X104151666Y-105116866D01*
X103966094Y-105342986D01*
X103936800Y-105397791D01*
X103907506Y-105342986D01*
X103721934Y-105116866D01*
X103495814Y-104931294D01*
X103237834Y-104793401D01*
X102957911Y-104708487D01*
X102739750Y-104687000D01*
X102593850Y-104687000D01*
X102375689Y-104708487D01*
X102095766Y-104793401D01*
X101837786Y-104931294D01*
X101611666Y-105116866D01*
X101426094Y-105342986D01*
X101391776Y-105407191D01*
X101367506Y-105361786D01*
X101181934Y-105135666D01*
X100955814Y-104950094D01*
X100697834Y-104812201D01*
X100417911Y-104727287D01*
X100199750Y-104705800D01*
X100053850Y-104705800D01*
X99835689Y-104727287D01*
X99555766Y-104812201D01*
X99297786Y-104950094D01*
X99071666Y-105135666D01*
X98886094Y-105361786D01*
X98748201Y-105619766D01*
X98663287Y-105899689D01*
X98634615Y-106190800D01*
X96164000Y-106190800D01*
X96164000Y-97212800D01*
X98638728Y-97212800D01*
X98638728Y-98912800D01*
X98650988Y-99037282D01*
X98687298Y-99156980D01*
X98746263Y-99267294D01*
X98813153Y-99348800D01*
X98746263Y-99430306D01*
X98687298Y-99540620D01*
X98650988Y-99660318D01*
X98638728Y-99784800D01*
X98638728Y-101484800D01*
X98650988Y-101609282D01*
X98687298Y-101728980D01*
X98746263Y-101839294D01*
X98825615Y-101935985D01*
X98922306Y-102015337D01*
X99032620Y-102074302D01*
X99152318Y-102110612D01*
X99276800Y-102122872D01*
X100976800Y-102122872D01*
X101101282Y-102110612D01*
X101220980Y-102074302D01*
X101331294Y-102015337D01*
X101427985Y-101935985D01*
X101507337Y-101839294D01*
X101566302Y-101728980D01*
X101587193Y-101660113D01*
X101611666Y-101689934D01*
X101837786Y-101875506D01*
X102095766Y-102013399D01*
X102375689Y-102098313D01*
X102593850Y-102119800D01*
X102739750Y-102119800D01*
X102957911Y-102098313D01*
X103237834Y-102013399D01*
X103495814Y-101875506D01*
X103721934Y-101689934D01*
X103907506Y-101463814D01*
X103936800Y-101409009D01*
X103966094Y-101463814D01*
X104151666Y-101689934D01*
X104377786Y-101875506D01*
X104635766Y-102013399D01*
X104915689Y-102098313D01*
X105133850Y-102119800D01*
X105279750Y-102119800D01*
X105497911Y-102098313D01*
X105777834Y-102013399D01*
X106035814Y-101875506D01*
X106261934Y-101689934D01*
X106447506Y-101463814D01*
X106476800Y-101409009D01*
X106506094Y-101463814D01*
X106691666Y-101689934D01*
X106917786Y-101875506D01*
X107175766Y-102013399D01*
X107455689Y-102098313D01*
X107673850Y-102119800D01*
X107819750Y-102119800D01*
X108037911Y-102098313D01*
X108317834Y-102013399D01*
X108575814Y-101875506D01*
X108801934Y-101689934D01*
X108987506Y-101463814D01*
X109016800Y-101409009D01*
X109046094Y-101463814D01*
X109231666Y-101689934D01*
X109457786Y-101875506D01*
X109715766Y-102013399D01*
X109995689Y-102098313D01*
X110213850Y-102119800D01*
X110359750Y-102119800D01*
X110577911Y-102098313D01*
X110857834Y-102013399D01*
X111115814Y-101875506D01*
X111341934Y-101689934D01*
X111527506Y-101463814D01*
X111556800Y-101409009D01*
X111586094Y-101463814D01*
X111771666Y-101689934D01*
X111997786Y-101875506D01*
X112255766Y-102013399D01*
X112535689Y-102098313D01*
X112753850Y-102119800D01*
X112899750Y-102119800D01*
X113117911Y-102098313D01*
X113397834Y-102013399D01*
X113655814Y-101875506D01*
X113881934Y-101689934D01*
X114067506Y-101463814D01*
X114096800Y-101409009D01*
X114126094Y-101463814D01*
X114311666Y-101689934D01*
X114537786Y-101875506D01*
X114795766Y-102013399D01*
X115075689Y-102098313D01*
X115293850Y-102119800D01*
X115439750Y-102119800D01*
X115657911Y-102098313D01*
X115937834Y-102013399D01*
X116195814Y-101875506D01*
X116421934Y-101689934D01*
X116607506Y-101463814D01*
X116636800Y-101409009D01*
X116666094Y-101463814D01*
X116851666Y-101689934D01*
X117077786Y-101875506D01*
X117335766Y-102013399D01*
X117615689Y-102098313D01*
X117833850Y-102119800D01*
X117979750Y-102119800D01*
X118197911Y-102098313D01*
X118477834Y-102013399D01*
X118735814Y-101875506D01*
X118961934Y-101689934D01*
X119147506Y-101463814D01*
X119285399Y-101205834D01*
X119370313Y-100925911D01*
X119398985Y-100634800D01*
X119370313Y-100343689D01*
X119285399Y-100063766D01*
X119147506Y-99805786D01*
X119088593Y-99734000D01*
X120838328Y-99734000D01*
X120838328Y-101434000D01*
X120850588Y-101558482D01*
X120886898Y-101678180D01*
X120945863Y-101788494D01*
X121025215Y-101885185D01*
X121121906Y-101964537D01*
X121232220Y-102023502D01*
X121351918Y-102059812D01*
X121476400Y-102072072D01*
X123176400Y-102072072D01*
X123300882Y-102059812D01*
X123420580Y-102023502D01*
X123530894Y-101964537D01*
X123627585Y-101885185D01*
X123706937Y-101788494D01*
X123765902Y-101678180D01*
X123802212Y-101558482D01*
X123814472Y-101434000D01*
X123814472Y-99734000D01*
X123802212Y-99609518D01*
X123765902Y-99489820D01*
X123706937Y-99379506D01*
X123627585Y-99282815D01*
X123530894Y-99203463D01*
X123420580Y-99144498D01*
X123339934Y-99120034D01*
X123423988Y-99044269D01*
X123598041Y-98810920D01*
X123723225Y-98548099D01*
X123767876Y-98400890D01*
X123646555Y-98171000D01*
X122453400Y-98171000D01*
X122453400Y-98191000D01*
X122199400Y-98191000D01*
X122199400Y-98171000D01*
X121006245Y-98171000D01*
X120884924Y-98400890D01*
X120929575Y-98548099D01*
X121054759Y-98810920D01*
X121228812Y-99044269D01*
X121312866Y-99120034D01*
X121232220Y-99144498D01*
X121121906Y-99203463D01*
X121025215Y-99282815D01*
X120945863Y-99379506D01*
X120886898Y-99489820D01*
X120850588Y-99609518D01*
X120838328Y-99734000D01*
X119088593Y-99734000D01*
X118961934Y-99579666D01*
X118735814Y-99394094D01*
X118651075Y-99348800D01*
X118735814Y-99303506D01*
X118961934Y-99117934D01*
X119147506Y-98891814D01*
X119285399Y-98633834D01*
X119370313Y-98353911D01*
X119398985Y-98062800D01*
X119370313Y-97771689D01*
X119344657Y-97687110D01*
X120884924Y-97687110D01*
X121006245Y-97917000D01*
X122199400Y-97917000D01*
X122199400Y-96723186D01*
X122453400Y-96723186D01*
X122453400Y-97917000D01*
X123646555Y-97917000D01*
X123767876Y-97687110D01*
X123723225Y-97539901D01*
X123598041Y-97277080D01*
X123423988Y-97043731D01*
X123207755Y-96848822D01*
X122957652Y-96699843D01*
X122683291Y-96602519D01*
X122453400Y-96723186D01*
X122199400Y-96723186D01*
X121969509Y-96602519D01*
X121695148Y-96699843D01*
X121445045Y-96848822D01*
X121228812Y-97043731D01*
X121054759Y-97277080D01*
X120929575Y-97539901D01*
X120884924Y-97687110D01*
X119344657Y-97687110D01*
X119285399Y-97491766D01*
X119147506Y-97233786D01*
X118961934Y-97007666D01*
X118735814Y-96822094D01*
X118477834Y-96684201D01*
X118197911Y-96599287D01*
X117979750Y-96577800D01*
X117833850Y-96577800D01*
X117615689Y-96599287D01*
X117335766Y-96684201D01*
X117077786Y-96822094D01*
X116851666Y-97007666D01*
X116666094Y-97233786D01*
X116636800Y-97288591D01*
X116607506Y-97233786D01*
X116421934Y-97007666D01*
X116195814Y-96822094D01*
X115937834Y-96684201D01*
X115657911Y-96599287D01*
X115439750Y-96577800D01*
X115293850Y-96577800D01*
X115075689Y-96599287D01*
X114795766Y-96684201D01*
X114537786Y-96822094D01*
X114311666Y-97007666D01*
X114126094Y-97233786D01*
X114096800Y-97288591D01*
X114067506Y-97233786D01*
X113881934Y-97007666D01*
X113655814Y-96822094D01*
X113397834Y-96684201D01*
X113117911Y-96599287D01*
X112899750Y-96577800D01*
X112753850Y-96577800D01*
X112535689Y-96599287D01*
X112255766Y-96684201D01*
X111997786Y-96822094D01*
X111771666Y-97007666D01*
X111586094Y-97233786D01*
X111556800Y-97288591D01*
X111527506Y-97233786D01*
X111341934Y-97007666D01*
X111115814Y-96822094D01*
X110857834Y-96684201D01*
X110577911Y-96599287D01*
X110359750Y-96577800D01*
X110213850Y-96577800D01*
X109995689Y-96599287D01*
X109715766Y-96684201D01*
X109457786Y-96822094D01*
X109231666Y-97007666D01*
X109046094Y-97233786D01*
X109016800Y-97288591D01*
X108987506Y-97233786D01*
X108801934Y-97007666D01*
X108575814Y-96822094D01*
X108317834Y-96684201D01*
X108037911Y-96599287D01*
X107819750Y-96577800D01*
X107673850Y-96577800D01*
X107455689Y-96599287D01*
X107175766Y-96684201D01*
X106917786Y-96822094D01*
X106691666Y-97007666D01*
X106506094Y-97233786D01*
X106476800Y-97288591D01*
X106447506Y-97233786D01*
X106261934Y-97007666D01*
X106035814Y-96822094D01*
X105777834Y-96684201D01*
X105497911Y-96599287D01*
X105279750Y-96577800D01*
X105133850Y-96577800D01*
X104915689Y-96599287D01*
X104635766Y-96684201D01*
X104377786Y-96822094D01*
X104151666Y-97007666D01*
X103966094Y-97233786D01*
X103936800Y-97288591D01*
X103907506Y-97233786D01*
X103721934Y-97007666D01*
X103495814Y-96822094D01*
X103237834Y-96684201D01*
X102957911Y-96599287D01*
X102739750Y-96577800D01*
X102593850Y-96577800D01*
X102375689Y-96599287D01*
X102095766Y-96684201D01*
X101837786Y-96822094D01*
X101611666Y-97007666D01*
X101587193Y-97037487D01*
X101566302Y-96968620D01*
X101507337Y-96858306D01*
X101427985Y-96761615D01*
X101331294Y-96682263D01*
X101220980Y-96623298D01*
X101101282Y-96586988D01*
X100976800Y-96574728D01*
X99276800Y-96574728D01*
X99152318Y-96586988D01*
X99032620Y-96623298D01*
X98922306Y-96682263D01*
X98825615Y-96761615D01*
X98746263Y-96858306D01*
X98687298Y-96968620D01*
X98650988Y-97088318D01*
X98638728Y-97212800D01*
X96164000Y-97212800D01*
X96164000Y-92506800D01*
X98634615Y-92506800D01*
X98663287Y-92797911D01*
X98748201Y-93077834D01*
X98886094Y-93335814D01*
X99071666Y-93561934D01*
X99297786Y-93747506D01*
X99555766Y-93885399D01*
X99835689Y-93970313D01*
X100053850Y-93991800D01*
X100199750Y-93991800D01*
X100417911Y-93970313D01*
X100697834Y-93885399D01*
X100955814Y-93747506D01*
X101181934Y-93561934D01*
X101367506Y-93335814D01*
X101396800Y-93281009D01*
X101426094Y-93335814D01*
X101611666Y-93561934D01*
X101837786Y-93747506D01*
X102095766Y-93885399D01*
X102375689Y-93970313D01*
X102593850Y-93991800D01*
X102739750Y-93991800D01*
X102957911Y-93970313D01*
X103237834Y-93885399D01*
X103495814Y-93747506D01*
X103721934Y-93561934D01*
X103907506Y-93335814D01*
X103936800Y-93281009D01*
X103966094Y-93335814D01*
X104151666Y-93561934D01*
X104377786Y-93747506D01*
X104635766Y-93885399D01*
X104915689Y-93970313D01*
X105133850Y-93991800D01*
X105279750Y-93991800D01*
X105497911Y-93970313D01*
X105777834Y-93885399D01*
X106035814Y-93747506D01*
X106261934Y-93561934D01*
X106447506Y-93335814D01*
X106476800Y-93281009D01*
X106506094Y-93335814D01*
X106691666Y-93561934D01*
X106917786Y-93747506D01*
X107175766Y-93885399D01*
X107455689Y-93970313D01*
X107673850Y-93991800D01*
X107819750Y-93991800D01*
X108037911Y-93970313D01*
X108317834Y-93885399D01*
X108575814Y-93747506D01*
X108801934Y-93561934D01*
X108987506Y-93335814D01*
X109016800Y-93281009D01*
X109046094Y-93335814D01*
X109231666Y-93561934D01*
X109457786Y-93747506D01*
X109715766Y-93885399D01*
X109995689Y-93970313D01*
X110213850Y-93991800D01*
X110359750Y-93991800D01*
X110577911Y-93970313D01*
X110857834Y-93885399D01*
X111115814Y-93747506D01*
X111341934Y-93561934D01*
X111527506Y-93335814D01*
X111556800Y-93281009D01*
X111586094Y-93335814D01*
X111771666Y-93561934D01*
X111997786Y-93747506D01*
X112255766Y-93885399D01*
X112535689Y-93970313D01*
X112753850Y-93991800D01*
X112899750Y-93991800D01*
X113117911Y-93970313D01*
X113397834Y-93885399D01*
X113655814Y-93747506D01*
X113881934Y-93561934D01*
X114067506Y-93335814D01*
X114096800Y-93281009D01*
X114126094Y-93335814D01*
X114311666Y-93561934D01*
X114537786Y-93747506D01*
X114795766Y-93885399D01*
X115075689Y-93970313D01*
X115293850Y-93991800D01*
X115439750Y-93991800D01*
X115657911Y-93970313D01*
X115937834Y-93885399D01*
X116195814Y-93747506D01*
X116421934Y-93561934D01*
X116607506Y-93335814D01*
X116636800Y-93281009D01*
X116666094Y-93335814D01*
X116851666Y-93561934D01*
X117077786Y-93747506D01*
X117335766Y-93885399D01*
X117615689Y-93970313D01*
X117833850Y-93991800D01*
X117979750Y-93991800D01*
X118197911Y-93970313D01*
X118477834Y-93885399D01*
X118735814Y-93747506D01*
X118961934Y-93561934D01*
X119147506Y-93335814D01*
X119285399Y-93077834D01*
X119370313Y-92797911D01*
X119398985Y-92506800D01*
X119370313Y-92215689D01*
X119285399Y-91935766D01*
X119147506Y-91677786D01*
X118961934Y-91451666D01*
X118735814Y-91266094D01*
X118671277Y-91231599D01*
X118788155Y-91161978D01*
X119004388Y-90967069D01*
X119178441Y-90733720D01*
X119303625Y-90470899D01*
X119348276Y-90323690D01*
X119226955Y-90093800D01*
X118033800Y-90093800D01*
X118033800Y-90113800D01*
X117779800Y-90113800D01*
X117779800Y-90093800D01*
X115493800Y-90093800D01*
X115493800Y-90113800D01*
X115239800Y-90113800D01*
X115239800Y-90093800D01*
X112953800Y-90093800D01*
X112953800Y-90113800D01*
X112699800Y-90113800D01*
X112699800Y-90093800D01*
X110413800Y-90093800D01*
X110413800Y-90113800D01*
X110159800Y-90113800D01*
X110159800Y-90093800D01*
X107873800Y-90093800D01*
X107873800Y-90113800D01*
X107619800Y-90113800D01*
X107619800Y-90093800D01*
X105333800Y-90093800D01*
X105333800Y-90113800D01*
X105079800Y-90113800D01*
X105079800Y-90093800D01*
X102793800Y-90093800D01*
X102793800Y-90113800D01*
X102539800Y-90113800D01*
X102539800Y-90093800D01*
X100253800Y-90093800D01*
X100253800Y-90113800D01*
X99999800Y-90113800D01*
X99999800Y-90093800D01*
X98806645Y-90093800D01*
X98685324Y-90323690D01*
X98729975Y-90470899D01*
X98855159Y-90733720D01*
X99029212Y-90967069D01*
X99245445Y-91161978D01*
X99362323Y-91231599D01*
X99297786Y-91266094D01*
X99071666Y-91451666D01*
X98886094Y-91677786D01*
X98748201Y-91935766D01*
X98663287Y-92215689D01*
X98634615Y-92506800D01*
X96164000Y-92506800D01*
X96164000Y-87286991D01*
X96398661Y-87409669D01*
X96713199Y-87502243D01*
X97039729Y-87531959D01*
X97365811Y-87497686D01*
X97679026Y-87400730D01*
X97967444Y-87244783D01*
X98220079Y-87035785D01*
X98427308Y-86781698D01*
X98536253Y-86576800D01*
X98638728Y-86576800D01*
X98638728Y-88276800D01*
X98650988Y-88401282D01*
X98687298Y-88520980D01*
X98746263Y-88631294D01*
X98825615Y-88727985D01*
X98922306Y-88807337D01*
X99032620Y-88866302D01*
X99113266Y-88890766D01*
X99029212Y-88966531D01*
X98855159Y-89199880D01*
X98729975Y-89462701D01*
X98685324Y-89609910D01*
X98806645Y-89839800D01*
X99999800Y-89839800D01*
X99999800Y-89819800D01*
X100253800Y-89819800D01*
X100253800Y-89839800D01*
X102539800Y-89839800D01*
X102539800Y-89819800D01*
X102793800Y-89819800D01*
X102793800Y-89839800D01*
X105079800Y-89839800D01*
X105079800Y-89819800D01*
X105333800Y-89819800D01*
X105333800Y-89839800D01*
X107619800Y-89839800D01*
X107619800Y-89819800D01*
X107873800Y-89819800D01*
X107873800Y-89839800D01*
X110159800Y-89839800D01*
X110159800Y-89819800D01*
X110413800Y-89819800D01*
X110413800Y-89839800D01*
X112699800Y-89839800D01*
X112699800Y-89819800D01*
X112953800Y-89819800D01*
X112953800Y-89839800D01*
X115239800Y-89839800D01*
X115239800Y-89819800D01*
X115493800Y-89819800D01*
X115493800Y-89839800D01*
X117779800Y-89839800D01*
X117779800Y-89819800D01*
X118033800Y-89819800D01*
X118033800Y-89839800D01*
X119226955Y-89839800D01*
X119348276Y-89609910D01*
X119303625Y-89462701D01*
X119178441Y-89199880D01*
X119004388Y-88966531D01*
X118920334Y-88890766D01*
X119000980Y-88866302D01*
X119111294Y-88807337D01*
X119207985Y-88727985D01*
X119287337Y-88631294D01*
X119346302Y-88520980D01*
X119382612Y-88401282D01*
X119394872Y-88276800D01*
X119394872Y-86576800D01*
X120838328Y-86576800D01*
X120838328Y-88276800D01*
X120850588Y-88401282D01*
X120886898Y-88520980D01*
X120945863Y-88631294D01*
X121025215Y-88727985D01*
X121121906Y-88807337D01*
X121232220Y-88866302D01*
X121351918Y-88902612D01*
X121476400Y-88914872D01*
X123176400Y-88914872D01*
X123300882Y-88902612D01*
X123420580Y-88866302D01*
X123530894Y-88807337D01*
X123627585Y-88727985D01*
X123706937Y-88631294D01*
X123765902Y-88520980D01*
X123802212Y-88401282D01*
X123814472Y-88276800D01*
X123814472Y-86576800D01*
X123802212Y-86452318D01*
X123765902Y-86332620D01*
X123706937Y-86222306D01*
X123627585Y-86125615D01*
X123530894Y-86046263D01*
X123420580Y-85987298D01*
X123300882Y-85950988D01*
X123176400Y-85938728D01*
X121476400Y-85938728D01*
X121351918Y-85950988D01*
X121232220Y-85987298D01*
X121121906Y-86046263D01*
X121025215Y-86125615D01*
X120945863Y-86222306D01*
X120886898Y-86332620D01*
X120850588Y-86452318D01*
X120838328Y-86576800D01*
X119394872Y-86576800D01*
X119382612Y-86452318D01*
X119346302Y-86332620D01*
X119287337Y-86222306D01*
X119207985Y-86125615D01*
X119111294Y-86046263D01*
X119000980Y-85987298D01*
X118881282Y-85950988D01*
X118756800Y-85938728D01*
X117056800Y-85938728D01*
X116932318Y-85950988D01*
X116812620Y-85987298D01*
X116702306Y-86046263D01*
X116636800Y-86100022D01*
X116571294Y-86046263D01*
X116460980Y-85987298D01*
X116341282Y-85950988D01*
X116216800Y-85938728D01*
X114516800Y-85938728D01*
X114392318Y-85950988D01*
X114272620Y-85987298D01*
X114162306Y-86046263D01*
X114096800Y-86100022D01*
X114031294Y-86046263D01*
X113920980Y-85987298D01*
X113801282Y-85950988D01*
X113676800Y-85938728D01*
X111976800Y-85938728D01*
X111852318Y-85950988D01*
X111732620Y-85987298D01*
X111622306Y-86046263D01*
X111556800Y-86100022D01*
X111491294Y-86046263D01*
X111380980Y-85987298D01*
X111261282Y-85950988D01*
X111136800Y-85938728D01*
X109436800Y-85938728D01*
X109312318Y-85950988D01*
X109192620Y-85987298D01*
X109082306Y-86046263D01*
X109016800Y-86100022D01*
X108951294Y-86046263D01*
X108840980Y-85987298D01*
X108721282Y-85950988D01*
X108596800Y-85938728D01*
X106896800Y-85938728D01*
X106772318Y-85950988D01*
X106652620Y-85987298D01*
X106542306Y-86046263D01*
X106476800Y-86100022D01*
X106411294Y-86046263D01*
X106300980Y-85987298D01*
X106181282Y-85950988D01*
X106056800Y-85938728D01*
X104356800Y-85938728D01*
X104232318Y-85950988D01*
X104112620Y-85987298D01*
X104002306Y-86046263D01*
X103936800Y-86100022D01*
X103871294Y-86046263D01*
X103760980Y-85987298D01*
X103641282Y-85950988D01*
X103516800Y-85938728D01*
X101816800Y-85938728D01*
X101692318Y-85950988D01*
X101572620Y-85987298D01*
X101462306Y-86046263D01*
X101396800Y-86100022D01*
X101331294Y-86046263D01*
X101220980Y-85987298D01*
X101101282Y-85950988D01*
X100976800Y-85938728D01*
X99276800Y-85938728D01*
X99152318Y-85950988D01*
X99032620Y-85987298D01*
X98922306Y-86046263D01*
X98825615Y-86125615D01*
X98746263Y-86222306D01*
X98687298Y-86332620D01*
X98650988Y-86452318D01*
X98638728Y-86576800D01*
X98536253Y-86576800D01*
X98581237Y-86492198D01*
X98676005Y-86178314D01*
X98708000Y-85852000D01*
X98707345Y-85805092D01*
X98666251Y-85479799D01*
X98562756Y-85168682D01*
X98460114Y-84988000D01*
X124031949Y-84988000D01*
X123913976Y-85217551D01*
M02*
